<svg width="74" height="121" viewBox="0 0 74 121" fill="none" xmlns="http://www.w3.org/2000/svg">
<path d="M39.3748 21.6751H40.768C45.0766 21.6751 48.5695 25.1899 48.5695 29.5256M39.3748 21.6751H35.7527C31.9057 21.6751 28.787 24.8133 28.787 28.6845C28.787 32.5556 31.9057 35.6938 35.7527 35.6938H39.3748M39.3748 21.6751V35.6938M39.3748 21.6751V16.6284M39.3748 49.7125H42.997C46.844 49.7125 49.9626 46.5743 49.9626 42.7031C49.9626 38.832 46.844 35.6938 42.997 35.6938H39.3748M39.3748 49.7125H36.5886C31.9721 49.7125 28.2298 45.9467 28.2298 41.3013M39.3748 49.7125V35.6938M39.3748 49.7125V54.1985M38.8176 69.8994C57.8988 69.8994 73.3672 54.334 73.3672 35.1331C73.3672 15.9321 57.8988 0.366699 38.8176 0.366699C19.7363 0.366699 4.26795 15.9321 4.26795 35.1331C4.26795 54.334 19.7363 69.8994 38.8176 69.8994ZM38.8176 69.8994V120.367M38.8176 120.367H26.558M38.8176 120.367H51.6344M48.2909 105.787C48.2909 105.787 49.1267 97.0957 54.6992 92.6098C60.2463 88.1444 67.2374 88.4042 67.2374 88.4042C67.2374 88.4042 68.6305 95.6938 64.4512 101.301C59.018 108.591 48.2909 105.787 48.2909 105.787ZM28.787 95.4749C28.787 95.4749 27.5478 82.6891 19.2862 76.0902C11.0624 69.5214 0.697651 69.9036 0.697651 69.9036C0.697651 69.9036 -1.36775 80.6269 4.82844 88.8758C12.8835 99.5992 28.787 95.4749 28.787 95.4749Z" stroke="#262D29" stroke-width="0.733333"/>
</svg>
