<svg width="400" height="400" viewBox="0 0 400 400" fill="none" xmlns="http://www.w3.org/2000/svg">
<path d="M400 200C400 310.457 310.457 400 200 400C89.5431 400 0 310.457 0 200C0 89.5431 89.5431 0 200 0C310.457 0 400 89.5431 400 200ZM50 200C50 282.843 117.157 350 200 350C282.843 350 350 282.843 350 200C350 117.157 282.843 50 200 50C117.157 50 50 117.157 50 200Z" fill="#171717"/>
<path d="M320 200C320 266.274 266.274 320 200 320C133.726 320 80 266.274 80 200C80 133.726 133.726 80 200 80C266.274 80 320 133.726 320 200ZM128 200C128 239.764 160.236 272 200 272C239.764 272 272 239.764 272 200C272 160.236 239.764 128 200 128C160.236 128 128 160.236 128 200Z" fill="#171717"/>
<path d="M240 200C240 222.091 222.091 240 200 240C177.909 240 160 222.091 160 200C160 177.909 177.909 160 200 160C222.091 160 240 177.909 240 200Z" fill="#171717"/>
</svg>
