<svg width="543" height="406" viewBox="0 0 543 406" fill="none" xmlns="http://www.w3.org/2000/svg">
<path d="M445.386 241.015C482.76 265.297 543 299.314 543 299.314L485.476 406C485.476 406 438.785 361.121 400.644 351.199C369.269 343.038 292.572 376.268 244.927 372.77C225.185 371.32 217.518 358.283 199.025 351.199C171.209 340.545 152.365 345.173 125.234 331.961C103.71 321.48 93.8989 310.461 74.1025 296.982C55.5108 284.323 32.8489 273.662 25.8765 265.501C23.2597 262.437 25.6005 258.055 28.7835 255.59C30.855 253.985 34.0978 254.279 35.4432 254.318C36.7886 254.358 40.291 257.268 42.4156 258.999C44.1771 260.434 46.4828 262.497 46.4828 262.497C46.4828 262.497 44.2116 260.032 42.4156 258.416C40.704 256.877 39.4281 255.97 37.4972 254.424C24.5508 244.055 11.5024 237.662 3.21783 229.356C0.310443 226.441 -0.534606 222.943 0.312435 219.445C1.34154 215.195 3.79715 212.449 9.0283 211.283C16.1894 209.687 23.365 210.559 24.4035 210.612C26.1466 210.7 29.0518 212.361 31.957 214.109C33.8527 215.651 36.0242 217.607 36.0242 217.607C36.0242 217.607 34.925 215.734 33.119 214.109C31.5462 212.695 29.2762 211.573 28.7835 210.7C27.9696 209.258 28.3529 208.033 29.0518 206.531C30.3432 203.755 32.6189 202.464 35.1749 200.789C39.9397 197.667 44.2779 197.892 49.7008 199.623C62.4836 203.704 68.5421 206.293 77.5905 214.781C78.7964 215.912 80.7061 217.391 81.926 218.773C83.83 220.931 84.8312 222.854 84.8312 222.854C84.8312 222.854 83.6956 219.881 82.5071 218.19C81.3185 216.5 80.7639 215.858 78.7441 214.198C76.7242 212.538 88.399 209.737 92.6974 210.117C96.8652 210.486 99.554 210.313 103.156 212.449C115.939 220.028 121.46 233.111 136.275 242.181C145.461 247.805 164.433 248.011 160.098 251.509C155.762 255.007 150.211 262.246 148.475 270.165C146.284 280.158 149.927 289.277 157.772 295.816C169.662 305.727 187.674 304.709 192.634 304.561C231.563 303.395 268.749 300.48 290.248 300.48C310.731 300.48 342.541 304.561 342.541 304.561C342.541 304.561 338.606 301.326 335.568 300.48C325.11 297.565 307.005 295.475 288.505 294.65C262.358 293.484 219.361 302.812 174.041 296.982C161.357 295.35 151.181 279.928 155.447 267.833C158.542 259.058 166.757 254.335 171.716 252.999L171.759 252.988C176.731 251.648 186.473 249.024 194.96 248.011C217.277 245.347 230.315 249.978 252.482 246.262C274.992 242.489 287.344 238.1 308.262 228.773C327.803 220.058 338.713 213.005 359.974 210.7C376.481 208.91 386.575 208.542 402.389 213.615C421.213 219.653 428.798 230.238 445.386 241.015Z" fill="#171717"/>
<path d="M265.385 122.061C265.385 123.349 264.345 124.393 263.061 124.393H191.965C190.682 124.393 189.641 123.349 189.641 122.061V72.0125C189.641 70.7246 188.6 69.6805 187.317 69.6805H163.619C161.554 69.6805 160.515 67.1785 161.969 65.7066L226.226 0.689959C227.147 -0.242324 228.654 -0.227957 229.557 0.721732L291.415 65.7384C292.827 67.2223 291.779 69.6805 289.734 69.6805H267.709C266.426 69.6805 265.385 70.7246 265.385 72.0125V122.061ZM189.641 139.364C189.641 138.076 190.682 137.032 191.965 137.032H200.507C201.79 137.032 202.831 138.076 202.831 139.364V177.597C202.831 178.885 201.79 179.929 200.507 179.929H191.965C190.682 179.929 189.641 178.885 189.641 177.597V139.364ZM251.773 139.364C251.773 138.076 252.814 137.032 254.098 137.032H263.061C264.345 137.032 265.385 138.076 265.385 139.364V177.597C265.385 178.885 264.345 179.929 263.061 179.929H254.098C252.814 179.929 251.773 178.885 251.773 177.597V139.364ZM220.496 154.956C220.496 153.668 221.537 152.624 222.82 152.624H231.784C233.067 152.624 234.108 153.668 234.108 154.956V201.867C234.108 203.155 233.067 204.199 231.784 204.199H222.82C221.537 204.199 220.496 203.155 220.496 201.867V154.956Z" fill="#171717"/>
</svg>
