<svg width="100%" height="100%" viewBox="0 0 180 180" fill="none" xmlns="http://www.w3.org/2000/svg">
<path fill-rule="evenodd" clip-rule="evenodd" d="M90.502 158.638C96.2138 158.898 100.77 163.575 100.771 169.313C100.77 175.219 95.9444 180 90 180C84.0558 180 79.2298 175.219 79.2295 169.313C79.2296 163.573 83.7885 158.896 89.502 158.638V158.168H90.502V158.638ZM90 159.626C84.6003 159.626 80.2296 163.968 80.2295 169.313C80.2298 174.659 84.6003 179 90 179C95.3998 179 99.7702 174.659 99.7705 169.313C99.7704 163.967 95.3999 159.626 90 159.626Z" fill="#171717"/>
<path d="M90.502 156.249H89.502V154.331H90.502V156.249Z" fill="#171717"/>
<path fill-rule="evenodd" clip-rule="evenodd" d="M26.4854 137.605C30.5734 133.551 37.1283 133.438 41.3545 137.266L41.6963 136.928L42.0479 137.283L42.4004 137.638L42.0635 137.971C45.9176 142.165 45.8015 148.667 41.7139 152.722C37.508 156.893 30.6911 156.893 26.4854 152.722C22.2775 148.548 22.2775 141.779 26.4854 137.605ZM41.0098 138.315C37.1938 134.531 31.0054 134.531 27.1895 138.315C23.376 142.098 23.3761 148.229 27.1895 152.012C31.0054 155.797 37.1938 155.797 41.0098 152.012C44.8233 148.229 44.8234 142.098 41.0098 138.315Z" fill="#171717"/>
<path fill-rule="evenodd" clip-rule="evenodd" d="M139.098 137.264C143.324 133.438 149.877 133.551 153.965 137.605C158.173 141.779 158.173 148.548 153.965 152.722C149.759 156.893 142.942 156.893 138.736 152.722C134.648 148.667 134.532 142.163 138.388 137.969L138.055 137.638L138.759 136.928L139.098 137.264ZM153.261 138.315C149.445 134.531 143.256 134.531 139.44 138.315C135.627 142.098 135.627 148.229 139.44 152.012C143.256 155.797 149.445 155.797 153.261 152.012C157.074 148.229 157.074 142.098 153.261 138.315Z" fill="#171717"/>
<path d="M90.502 152.413H89.502V150.494H90.502V152.413Z" fill="#171717"/>
<path d="M90.502 148.576H89.502V146.658H90.502V148.576Z" fill="#171717"/>
<path d="M90.502 144.739H89.502V142.821H90.502V144.739Z" fill="#171717"/>
<path d="M90.502 140.903H89.502V138.984H90.502V140.903Z" fill="#171717"/>
<path d="M90.502 137.066H89.502V135.147H90.502V137.066Z" fill="#171717"/>
<path d="M45.1348 134.925L43.7676 136.281L43.415 135.927L43.0635 135.571L44.4307 134.215L45.1348 134.925Z" fill="#171717"/>
<path d="M137.391 135.571L137.039 135.927L136.687 136.281L135.319 134.925L136.023 134.215L137.391 135.571Z" fill="#171717"/>
<path d="M47.8701 132.212L46.5029 133.568L46.1504 133.214L45.7988 132.858L47.166 131.502L47.8701 132.212Z" fill="#171717"/>
<path d="M134.655 132.858L134.304 133.214L133.951 133.568L132.584 132.212L132.937 131.857L133.288 131.502L134.655 132.858Z" fill="#171717"/>
<path d="M90.502 133.229H89.502V131.312H90.502V133.229Z" fill="#171717"/>
<path d="M50.6055 129.499L49.2383 130.855L48.8857 130.501L48.5342 130.146L49.9014 128.789L50.6055 129.499Z" fill="#171717"/>
<path d="M131.921 130.146L131.217 130.855L129.849 129.499L130.201 129.145L130.553 128.789L131.921 130.146Z" fill="#171717"/>
<path d="M90.502 129.393H89.502V127.475H90.502V129.393Z" fill="#171717"/>
<path d="M52.9883 126.432L53.3408 126.786L51.9736 128.143L51.6211 127.788L51.2686 127.433L52.6367 126.076L52.9883 126.432Z" fill="#171717"/>
<path d="M129.186 127.433L128.481 128.143L127.113 126.786L127.466 126.432L127.817 126.076L129.186 127.433Z" fill="#171717"/>
<path d="M90.502 125.557H89.502V123.638H90.502V125.557Z" fill="#171717"/>
<path d="M55.7236 123.719L56.0762 124.073L54.708 125.43L54.0039 124.72L55.3721 123.363L55.7236 123.719Z" fill="#171717"/>
<path d="M126.45 124.72L125.746 125.43L124.379 124.073L125.083 123.363L126.45 124.72Z" fill="#171717"/>
<path d="M58.459 121.006L58.8115 121.36L57.4434 122.717L56.7393 122.007L58.1064 120.65L58.459 121.006Z" fill="#171717"/>
<path d="M123.715 122.007L123.363 122.362L123.011 122.717L121.644 121.36L122.348 120.65L123.715 122.007Z" fill="#171717"/>
<path d="M90.502 121.72H89.502V119.801H90.502V121.72Z" fill="#171717"/>
<path d="M61.5459 118.647L60.1787 120.004L59.8262 119.649L59.4746 119.294L60.8418 117.938L61.5459 118.647Z" fill="#171717"/>
<path d="M120.979 119.294L120.628 119.649L120.275 120.004L118.908 118.647L119.612 117.938L120.979 119.294Z" fill="#171717"/>
<path d="M90.502 117.883H89.502V116.924H90.502V117.883Z" fill="#171717"/>
<path d="M64.2812 115.935L62.9141 117.291L62.5615 116.937L62.21 116.581L63.5771 115.225L64.2812 115.935Z" fill="#171717"/>
<path d="M118.245 116.581L117.893 116.937L117.54 117.291L116.173 115.935L116.525 115.58L116.877 115.225L118.245 116.581Z" fill="#171717"/>
<path d="M67.0166 113.222L65.6494 114.578L65.2969 114.223L64.9443 113.868L66.3125 112.512L67.0166 113.222Z" fill="#171717"/>
<path d="M115.51 113.868L115.157 114.223L114.806 114.578L113.438 113.222L114.142 112.512L115.51 113.868Z" fill="#171717"/>
<path d="M69.752 110.509L68.3838 111.865L68.0322 111.51L67.6797 111.155L69.0479 109.799L69.752 110.509Z" fill="#171717"/>
<path d="M112.774 111.155L112.422 111.51L112.07 111.865L110.702 110.509L111.055 110.153L111.407 109.799L112.774 111.155Z" fill="#171717"/>
<path d="M89.998 68.8994C101.343 68.8994 110.54 78.0204 110.54 89.2725C110.54 100.525 101.343 109.646 89.998 109.646C78.6535 109.646 69.457 100.525 69.457 89.2725C69.4572 78.0205 78.6536 68.8996 89.998 68.8994Z" fill="#171717"/>
<path d="M71.8027 108.474L71.1191 109.152L70.7676 108.797L70.415 108.442L71.0986 107.764L71.8027 108.474Z" fill="#171717"/>
<path d="M110.039 108.442L109.335 109.152L108.651 108.474L109.355 107.764L110.039 108.442Z" fill="#171717"/>
<path fill-rule="evenodd" clip-rule="evenodd" d="M10.7705 78.585C16.5466 78.585 21.2654 83.0995 21.5283 88.7734H22.0098V89.7734H21.5283C21.2646 95.4466 16.5461 99.959 10.7705 99.959C4.82601 99.959 5.90174e-05 95.1785 0 89.2725C0.000132732 83.3665 4.82606 78.585 10.7705 78.585ZM10.7705 79.585C5.37063 79.585 1.00013 83.9264 1 89.2725C1.00006 94.6185 5.37058 98.959 10.7705 98.959C16.1704 98.959 20.541 94.6185 20.541 89.2725C20.5409 83.9264 16.1704 79.585 10.7705 79.585Z" fill="#171717"/>
<path fill-rule="evenodd" clip-rule="evenodd" d="M169.23 78.585C175.175 78.5852 180.001 83.3666 180.001 89.2725C180.001 95.1784 175.175 99.9588 169.23 99.959C163.455 99.959 158.736 95.4466 158.473 89.7734H157.994V88.7734H158.473C158.736 83.0995 163.454 78.585 169.23 78.585ZM169.23 79.585C163.831 79.585 159.46 83.9264 159.46 89.2725C159.46 94.6185 163.831 98.959 169.23 98.959C174.63 98.9588 179.001 94.6184 179.001 89.2725C179.001 83.9266 174.63 79.5852 169.23 79.585Z" fill="#171717"/>
<path d="M25.8779 89.7734H23.9443V88.7734H25.8779V89.7734Z" fill="#171717"/>
<path d="M29.7461 89.7734H27.8125V88.7734H29.7461V89.7734Z" fill="#171717"/>
<path d="M33.6143 89.7734H31.6807V88.7734H33.6143V89.7734Z" fill="#171717"/>
<path d="M37.4824 89.7734H35.5488V88.7734H37.4824V89.7734Z" fill="#171717"/>
<path d="M41.3506 89.7734H39.417V88.7734H41.3506V89.7734Z" fill="#171717"/>
<path d="M45.2188 89.7734H43.2842V88.7734H45.2188V89.7734Z" fill="#171717"/>
<path d="M49.0869 89.7734H47.1523V88.7734H49.0869V89.7734Z" fill="#171717"/>
<path d="M52.9551 89.7734H51.0205V88.7734H52.9551V89.7734Z" fill="#171717"/>
<path d="M56.8232 89.7734H54.8887V88.7734H56.8232V89.7734Z" fill="#171717"/>
<path d="M60.6914 89.7734H58.7568V88.7734H60.6914V89.7734Z" fill="#171717"/>
<path d="M63.5928 89.7734H62.625V88.7734H63.5928V89.7734Z" fill="#171717"/>
<path d="M117.379 89.7734H116.412V88.7734H117.379V89.7734Z" fill="#171717"/>
<path d="M121.247 89.7734H119.313V88.7734H121.247V89.7734Z" fill="#171717"/>
<path d="M125.115 89.7734H123.182V88.7734H125.115V89.7734Z" fill="#171717"/>
<path d="M128.983 89.7734H127.05V88.7734H128.983V89.7734Z" fill="#171717"/>
<path d="M132.852 89.7734H130.918V88.7734H132.852V89.7734Z" fill="#171717"/>
<path d="M136.72 89.7734H134.786V88.7734H136.72V89.7734Z" fill="#171717"/>
<path d="M140.588 89.7734H138.654V88.7734H140.588V89.7734Z" fill="#171717"/>
<path d="M144.456 89.7734H142.521V88.7734H144.456V89.7734Z" fill="#171717"/>
<path d="M148.324 89.7734H146.39V88.7734H148.324V89.7734Z" fill="#171717"/>
<path d="M152.192 89.7734H150.258V88.7734H152.192V89.7734Z" fill="#171717"/>
<path d="M156.061 89.7734H154.126V88.7734H156.061V89.7734Z" fill="#171717"/>
<path d="M71.8027 70.5166L71.4512 70.8721L71.0986 71.2266L70.415 70.5488L71.1191 69.8389L71.8027 70.5166Z" fill="#171717"/>
<path d="M109.688 70.1934L110.039 70.5488L109.355 71.2266L109.003 70.8721L108.651 70.5166L109.335 69.8389L109.688 70.1934Z" fill="#171717"/>
<path d="M69.752 68.4824L69.3994 68.8369L69.0479 69.1924L67.6797 67.8359L68.3838 67.126L69.752 68.4824Z" fill="#171717"/>
<path d="M112.774 67.8359L111.407 69.1924L111.055 68.8369L110.702 68.4824L112.07 67.126L112.774 67.8359Z" fill="#171717"/>
<path d="M67.0166 65.7695L66.6641 66.124L66.3125 66.4795L64.9443 65.123L65.2969 64.7676L65.6494 64.4131L67.0166 65.7695Z" fill="#171717"/>
<path d="M115.51 65.123L114.142 66.4795L113.79 66.124L113.438 65.7695L114.806 64.4131L115.51 65.123Z" fill="#171717"/>
<path d="M64.2812 63.0566L63.5771 63.7666L62.21 62.4102L62.5615 62.0547L62.9141 61.7002L64.2812 63.0566Z" fill="#171717"/>
<path d="M117.893 62.0547L118.245 62.4102L116.877 63.7666L116.525 63.4111L116.173 63.0566L117.54 61.7002L117.893 62.0547Z" fill="#171717"/>
<path d="M90.502 63.0781H89.502V62.1191H90.502V63.0781Z" fill="#171717"/>
<path d="M61.5459 60.3438L60.8418 61.0537L59.4746 59.6973L59.8262 59.3418L60.1787 58.9873L61.5459 60.3438Z" fill="#171717"/>
<path d="M120.628 59.3418L120.979 59.6973L119.612 61.0537L118.908 60.3438L120.275 58.9873L120.628 59.3418Z" fill="#171717"/>
<path d="M90.502 60.2012H89.502V58.2822H90.502V60.2012Z" fill="#171717"/>
<path d="M58.8115 57.6309L58.459 57.9854L58.1064 58.3408L56.7393 56.9844L57.0918 56.6289L57.4434 56.2734L58.8115 57.6309Z" fill="#171717"/>
<path d="M123.363 56.6289L123.715 56.9844L122.348 58.3408L121.644 57.6309L123.011 56.2734L123.363 56.6289Z" fill="#171717"/>
<path d="M90.502 56.3643H89.502V54.4453H90.502V56.3643Z" fill="#171717"/>
<path d="M56.0762 54.917L55.7236 55.2725L55.3721 55.6279L54.0039 54.2705L54.3564 53.916L54.708 53.5605L56.0762 54.917Z" fill="#171717"/>
<path d="M126.098 53.916L126.45 54.2705L125.083 55.6279L124.73 55.2725L124.379 54.917L125.746 53.5605L126.098 53.916Z" fill="#171717"/>
<path d="M53.3408 52.2041L52.6367 52.9141L51.2686 51.5576L51.6211 51.2031L51.9736 50.8477L53.3408 52.2041Z" fill="#171717"/>
<path d="M128.833 51.2031L129.186 51.5576L127.817 52.9141L127.113 52.2041L128.481 50.8477L128.833 51.2031Z" fill="#171717"/>
<path d="M90.502 52.5273H89.502V50.6094H90.502V52.5273Z" fill="#171717"/>
<path d="M50.6055 49.4912L50.2539 49.8467L49.9014 50.2012L48.5342 48.8447L49.2383 48.1348L50.6055 49.4912Z" fill="#171717"/>
<path d="M131.568 48.4902L131.921 48.8447L130.553 50.2012L129.849 49.4912L131.217 48.1348L131.568 48.4902Z" fill="#171717"/>
<path d="M90.502 48.6904H89.502V46.7725H90.502V48.6904Z" fill="#171717"/>
<path d="M47.8701 46.7783L47.5186 47.1338L47.166 47.4883L45.7988 46.1318L46.5029 45.4219L47.8701 46.7783Z" fill="#171717"/>
<path d="M134.655 46.1318L133.288 47.4883L132.584 46.7783L133.951 45.4219L134.655 46.1318Z" fill="#171717"/>
<path d="M90.502 44.8545H89.502V42.9355H90.502V44.8545Z" fill="#171717"/>
<path d="M45.1348 44.0654L44.7832 44.4209L44.4307 44.7754L43.0635 43.4189L43.7676 42.709L45.1348 44.0654Z" fill="#171717"/>
<path d="M137.391 43.4189L136.023 44.7754L135.671 44.4209L135.319 44.0654L136.687 42.709L137.391 43.4189Z" fill="#171717"/>
<path fill-rule="evenodd" clip-rule="evenodd" d="M138.736 26.2666C142.942 22.0955 149.759 22.0956 153.965 26.2666C158.173 30.4404 158.173 37.2099 153.965 41.3838C149.877 45.4378 143.324 45.5516 139.098 41.7256L138.759 42.0625L138.406 41.708L138.055 41.3525L138.389 41.0205C134.533 36.826 134.648 30.3217 138.736 26.2666ZM153.261 26.9766C149.445 23.1922 143.256 23.1921 139.44 26.9766C135.627 30.7592 135.627 36.8911 139.44 40.6738C143.256 44.4585 149.445 44.4585 153.261 40.6738C157.074 36.8911 157.074 30.7592 153.261 26.9766Z" fill="#171717"/>
<path fill-rule="evenodd" clip-rule="evenodd" d="M26.4854 26.2666C30.691 22.0955 37.5081 22.0956 41.7139 26.2666C45.8017 30.3212 45.9168 36.824 42.0625 41.0186L42.4004 41.3525L41.6963 42.0625L41.3535 41.7227C37.1273 45.5504 30.5734 45.4385 26.4854 41.3838C22.2774 37.2099 22.2773 30.4404 26.4854 26.2666ZM41.0098 26.9766C37.1938 23.1922 31.0053 23.1921 27.1895 26.9766C23.3758 30.7592 23.3759 36.8911 27.1895 40.6738C31.0053 44.4586 37.1938 44.4584 41.0098 40.6738C44.8233 36.8911 44.8234 30.7592 41.0098 26.9766Z" fill="#171717"/>
<path d="M90.502 41.0176H89.502V39.0996H90.502V41.0176Z" fill="#171717"/>
<path d="M90.502 37.1807H89.502V35.2627H90.502V37.1807Z" fill="#171717"/>
<path d="M90.502 33.3438H89.502V31.4258H90.502V33.3438Z" fill="#171717"/>
<path d="M90.502 29.5078H89.502V27.5889H90.502V29.5078Z" fill="#171717"/>
<path d="M90.502 25.6709H89.502V23.7529H90.502V25.6709Z" fill="#171717"/>
<path fill-rule="evenodd" clip-rule="evenodd" d="M90 0C95.9443 0 100.77 4.78075 100.771 10.6865C100.771 16.4254 96.2138 21.1012 90.502 21.3613V21.834H89.502V21.3613C83.7884 21.103 79.2295 16.4267 79.2295 10.6865C79.2299 4.78085 84.0558 0.000165021 90 0ZM90 1C84.6004 1.00016 80.2299 5.34082 80.2295 10.6865C80.2295 16.0326 84.6002 20.3739 90 20.374C95.4 20.374 99.7705 16.0327 99.7705 10.6865C99.7701 5.34071 95.3997 1 90 1Z" fill="#171717"/>
</svg>
