<svg width="100%" height="100%" viewBox="0 0 140 200" fill="none" xmlns="http://www.w3.org/2000/svg">
<path d="M70.3496 200H69.6504V140H70.3496V200Z" fill="#171717"/>
<path d="M84.2051 135.501C84.4839 135.818 84.7245 136.117 84.9287 136.388L84.4834 136.724C84.2871 136.463 84.0553 136.175 83.7861 135.869L84.2051 135.501Z" fill="#171717"/>
<path d="M52.9697 135.206C52.6855 135.486 52.4395 135.751 52.2305 135.99L51.8105 135.623C52.0282 135.374 52.2836 135.099 52.5781 134.809L52.9697 135.206Z" fill="#171717"/>
<path d="M82.5801 133.896C82.8827 134.157 83.1624 134.416 83.4189 134.669L83.0273 135.066C82.7793 134.822 82.5087 134.57 82.2158 134.317L82.5801 133.896Z" fill="#171717"/>
<path d="M54.5967 133.803C54.295 134.031 54.0159 134.258 53.7588 134.479L53.3945 134.057C53.6604 133.828 53.9494 133.594 54.2607 133.358L54.5967 133.803Z" fill="#171717"/>
<path d="M80.7637 132.522C81.0918 132.739 81.4018 132.96 81.6943 133.181L81.3584 133.625C81.0751 133.411 80.7741 133.198 80.4561 132.988L80.6094 132.755L80.7637 132.522Z" fill="#171717"/>
<path d="M56.3877 132.611C56.0666 132.799 55.7623 132.99 55.4746 133.181L55.166 132.716C55.4625 132.519 55.7768 132.323 56.1074 132.13L56.3877 132.611Z" fill="#171717"/>
<path d="M78.7881 131.387C79.1372 131.56 79.4713 131.74 79.791 131.924L79.5137 132.407C79.2035 132.229 78.8791 132.054 78.54 131.886L78.7881 131.387Z" fill="#171717"/>
<path d="M58.1953 131.378L58.3086 131.633C57.9715 131.782 57.6478 131.936 57.3379 132.094L57.2109 131.846L57.084 131.597C57.4029 131.434 57.7364 131.275 58.083 131.122L58.1953 131.378Z" fill="#171717"/>
<path d="M76.6924 130.492C77.0588 130.625 77.4127 130.764 77.7539 130.909L77.5352 131.423C77.2035 131.281 76.8595 131.145 76.5029 131.017L76.6924 130.492Z" fill="#171717"/>
<path d="M60.3281 130.862C59.9762 130.976 59.6353 131.098 59.3066 131.223L59.1084 130.701C59.4458 130.573 59.7953 130.449 60.1562 130.332L60.3281 130.862Z" fill="#171717"/>
<path d="M74.5186 129.836C74.8942 129.928 75.2592 130.028 75.6133 130.135L75.5332 130.402L75.4531 130.669C75.1081 130.565 74.7522 130.467 74.3857 130.377L74.5186 129.836Z" fill="#171717"/>
<path d="M62.3496 130.026L62.4092 130.299C62.05 130.378 61.7005 130.464 61.3613 130.556L61.2148 130.018C61.5626 129.923 61.9212 129.835 62.2891 129.754L62.3496 130.026Z" fill="#171717"/>
<path d="M101.271 129.272C101.589 129.54 101.873 129.787 102.12 130.007L101.749 130.423C101.506 130.207 101.226 129.965 100.911 129.7L101.271 129.272Z" fill="#171717"/>
<path d="M72.2891 129.401C72.6716 129.457 73.0455 129.521 73.4092 129.592L73.3555 129.866L73.3027 130.14C72.9476 130.071 72.583 130.009 72.209 129.954L72.2891 129.401Z" fill="#171717"/>
<path d="M64.5039 129.646L64.54 129.924C64.1748 129.972 63.8175 130.027 63.4697 130.088L63.374 129.538C63.7294 129.476 64.094 129.42 64.4668 129.37L64.5039 129.646Z" fill="#171717"/>
<path d="M70.0322 129.173C70.4173 129.195 70.7945 129.225 71.1631 129.263L71.1064 129.818C70.7458 129.782 70.3763 129.752 69.999 129.729L70.0322 129.173Z" fill="#171717"/>
<path d="M66.6816 129.446L66.6963 129.725C66.3287 129.744 65.9685 129.771 65.6162 129.804L65.5645 129.248C65.9239 129.215 66.2913 129.188 66.666 129.168L66.6816 129.446Z" fill="#171717"/>
<path d="M68.8994 129.13L68.8896 129.687C68.7042 129.683 68.5164 129.682 68.3271 129.682C68.1427 129.682 67.9592 129.683 67.7783 129.687L67.7686 129.128C67.9527 129.125 68.1395 129.124 68.3271 129.124C68.5198 129.124 68.7105 129.126 68.8994 129.13Z" fill="#171717"/>
<path d="M36.7715 128.495C36.4492 128.741 36.1619 128.968 35.9121 129.169L35.5625 128.735C35.8161 128.531 36.1062 128.301 36.4326 128.052L36.7715 128.495Z" fill="#171717"/>
<path d="M100.397 128.559L100.05 128.994C99.7773 128.777 99.486 128.549 99.1768 128.313L99.3457 128.092L99.5146 127.869C99.8275 128.107 100.122 128.338 100.397 128.559Z" fill="#171717"/>
<path d="M38.543 127.207C38.2272 127.426 37.9293 127.638 37.6504 127.841L37.3223 127.39C37.6045 127.185 37.9063 126.97 38.2256 126.749L38.543 127.207Z" fill="#171717"/>
<path d="M98.6172 127.202L98.2891 127.653C98.0007 127.444 97.6994 127.229 97.3857 127.012L97.5439 126.782L97.7031 126.554C98.0203 126.774 98.3255 126.99 98.6172 127.202Z" fill="#171717"/>
<path d="M40.3613 126.001C40.0435 126.203 39.7373 126.401 39.4443 126.596L39.291 126.363L39.1367 126.131C39.4326 125.935 39.7416 125.734 40.0625 125.53L40.3613 126.001Z" fill="#171717"/>
<path d="M96.7754 125.924L96.4678 126.389C96.1673 126.189 95.8561 125.988 95.5361 125.785L95.835 125.314C96.1582 125.519 96.4719 125.723 96.7754 125.924Z" fill="#171717"/>
<path d="M42.2314 124.867C41.9086 125.054 41.5949 125.241 41.291 125.425L41.1455 125.187L41.001 124.948C41.3081 124.762 41.6258 124.574 41.9521 124.385L42.2314 124.867Z" fill="#171717"/>
<path d="M94.8809 124.724L94.5928 125.201C94.2821 125.013 93.9625 124.825 93.6357 124.637L93.915 124.153C94.245 124.344 94.5671 124.534 94.8809 124.724Z" fill="#171717"/>
<path d="M44.1475 123.807C43.8187 123.98 43.4969 124.154 43.1836 124.327L42.9141 123.84C43.2306 123.665 43.5555 123.488 43.8877 123.312L44.1475 123.807Z" fill="#171717"/>
<path d="M92.9355 123.602L92.8018 123.846L92.667 124.091C92.349 123.916 92.0239 123.741 91.6924 123.567L91.8223 123.321L91.9512 123.073C92.286 123.248 92.6143 123.425 92.9355 123.602Z" fill="#171717"/>
<path d="M45.9766 122.573L46.0977 122.824C45.7652 122.984 45.4387 123.144 45.1191 123.305L44.8682 122.807C45.1909 122.644 45.5206 122.482 45.8564 122.321L45.9766 122.573Z" fill="#171717"/>
<path d="M90.9551 122.565L90.707 123.064C90.3803 122.902 90.0466 122.742 89.708 122.582L89.8271 122.329L89.9463 122.077C90.2884 122.238 90.625 122.401 90.9551 122.565Z" fill="#171717"/>
<path d="M48.0879 121.919C47.7489 122.065 47.4147 122.213 47.0869 122.362L46.8555 121.854C47.1865 121.704 47.5238 121.554 47.8662 121.406L48.0879 121.919Z" fill="#171717"/>
<path d="M88.9258 121.608L88.8115 121.863L88.6982 122.118C88.3642 121.969 88.0243 121.822 87.6797 121.677L87.8965 121.163C88.2447 121.31 88.5883 121.458 88.9258 121.608Z" fill="#171717"/>
<path d="M50.0127 120.833L50.1123 121.093C49.7696 121.225 49.4315 121.358 49.0986 121.494L48.8877 120.979C49.2241 120.841 49.5667 120.705 49.9131 120.572L50.0127 120.833Z" fill="#171717"/>
<path d="M86.8623 120.739L86.6562 121.258C86.316 121.123 85.9708 120.99 85.6211 120.86L85.7188 120.599L85.8154 120.338C86.169 120.469 86.5184 120.603 86.8623 120.739Z" fill="#171717"/>
<path d="M52.168 120.351C51.8193 120.468 51.4746 120.589 51.1348 120.712L50.9453 120.188C51.2886 120.063 51.637 119.941 51.9893 119.822L52.168 120.351Z" fill="#171717"/>
<path d="M84.7568 119.956L84.5742 120.483C84.2294 120.363 83.8797 120.246 83.5264 120.132L83.6123 119.866L83.6982 119.602C84.0553 119.717 84.4085 119.835 84.7568 119.956Z" fill="#171717"/>
<path d="M54.252 119.694C53.9006 119.797 53.5525 119.903 53.209 120.011L53.125 119.744L53.042 119.479C53.3891 119.369 53.7406 119.263 54.0957 119.159L54.252 119.694Z" fill="#171717"/>
<path d="M82.6289 119.268L82.4688 119.802C82.1164 119.696 81.7597 119.593 81.3994 119.493L81.5479 118.956C81.9121 119.057 82.2728 119.161 82.6289 119.268Z" fill="#171717"/>
<path d="M56.3652 119.125C56.0081 119.213 55.6545 119.304 55.3047 119.398L55.1602 118.859C55.5138 118.764 55.8715 118.672 56.2324 118.583L56.3652 119.125Z" fill="#171717"/>
<path d="M117.273 118.869L117.12 119.103L116.969 119.336C116.694 119.157 116.378 118.956 116.023 118.736L116.317 118.263C116.675 118.485 116.995 118.688 117.273 118.869Z" fill="#171717"/>
<path d="M80.4678 118.67L80.3311 119.211C79.9756 119.121 79.6156 119.034 79.2529 118.95L79.3789 118.406C79.7455 118.49 80.1085 118.579 80.4678 118.67Z" fill="#171717"/>
<path d="M58.4951 118.648C58.1354 118.721 57.7789 118.797 57.4258 118.876L57.3643 118.604L57.3047 118.331C57.6616 118.251 58.0222 118.175 58.3857 118.102L58.4951 118.648Z" fill="#171717"/>
<path d="M78.2793 118.167L78.2236 118.44L78.167 118.713C77.8092 118.639 77.4475 118.569 77.083 118.502L77.1338 118.228L77.1836 117.953C77.5522 118.021 77.9174 118.092 78.2793 118.167Z" fill="#171717"/>
<path d="M60.6455 118.265C60.2843 118.321 59.9255 118.381 59.5703 118.444L59.4727 117.896C59.8318 117.831 60.1943 117.771 60.5596 117.714L60.6455 118.265Z" fill="#171717"/>
<path d="M76.0771 117.763L76.0332 118.038L75.9883 118.313C75.626 118.255 75.2601 118.201 74.8916 118.15L74.9678 117.598C75.3405 117.649 75.7107 117.704 76.0771 117.763Z" fill="#171717"/>
<path d="M115.337 117.666L115.052 118.146C114.745 117.963 114.418 117.772 114.07 117.573L114.348 117.089C114.698 117.289 115.028 117.482 115.337 117.666Z" fill="#171717"/>
<path d="M62.8125 117.977C62.4486 118.017 62.0869 118.061 61.7285 118.108L61.6924 117.832L61.6553 117.556C62.0176 117.507 62.383 117.462 62.751 117.422L62.8125 117.977Z" fill="#171717"/>
<path d="M73.8584 117.457L73.7939 118.011C73.4278 117.969 73.0584 117.931 72.6865 117.896L72.7119 117.618L72.7383 117.341C73.1145 117.376 73.4881 117.414 73.8584 117.457Z" fill="#171717"/>
<path d="M64.9912 117.786C64.6245 117.81 64.26 117.837 63.8984 117.869L63.8496 117.313C64.2154 117.281 64.5841 117.254 64.9551 117.229L64.9912 117.786Z" fill="#171717"/>
<path d="M71.626 117.25L71.5869 117.807C71.22 117.781 70.8498 117.759 70.4775 117.741L70.4912 117.463L70.5039 117.185C70.8804 117.203 71.2549 117.224 71.626 117.25Z" fill="#171717"/>
<path d="M67.1719 117.693C66.805 117.701 66.4403 117.712 66.0781 117.728L66.0547 117.17C66.4211 117.154 66.79 117.143 67.1611 117.136L67.1719 117.693Z" fill="#171717"/>
<path d="M68.8213 117.132C69.0101 117.135 69.1983 117.138 69.3857 117.143L69.3721 117.701C69.1866 117.696 69.0002 117.692 68.8135 117.689C68.6296 117.687 68.4455 117.685 68.2627 117.685L68.2646 117.127C68.4495 117.128 68.6353 117.129 68.8213 117.132Z" fill="#171717"/>
<path d="M21.8555 116.535L22.001 116.773C21.6409 116.992 21.3229 117.192 21.0479 117.37L20.8955 117.137L20.7441 116.902C21.0239 116.721 21.3468 116.518 21.7119 116.297L21.8555 116.535Z" fill="#171717"/>
<path d="M113.353 116.53L113.083 117.019C112.766 116.844 112.434 116.664 112.09 116.48L112.222 116.235L112.353 115.988C112.699 116.173 113.033 116.354 113.353 116.53Z" fill="#171717"/>
<path d="M23.9346 115.666C23.5872 115.854 23.2611 116.036 22.957 116.21L22.6807 115.727C22.9884 115.551 23.3178 115.366 23.6689 115.176L23.9346 115.666Z" fill="#171717"/>
<path d="M111.345 115.462L111.09 115.958C110.764 115.79 110.427 115.62 110.08 115.448L110.328 114.948C110.677 115.121 111.016 115.293 111.345 115.462Z" fill="#171717"/>
<path d="M25.9258 114.64C25.5778 114.81 25.2441 114.979 24.9258 115.143L24.6699 114.646C24.9915 114.481 25.3283 114.311 25.6797 114.139L25.9258 114.64Z" fill="#171717"/>
<path d="M109.301 114.447L109.06 114.95C108.724 114.789 108.38 114.627 108.027 114.464L108.262 113.958C108.616 114.122 108.963 114.285 109.301 114.447Z" fill="#171717"/>
<path d="M27.9551 113.688C27.6039 113.846 27.2639 114.001 26.9355 114.155L26.6982 113.65C27.0297 113.495 27.3732 113.337 27.7275 113.179L27.9551 113.688Z" fill="#171717"/>
<path d="M107.231 113.488L107.004 113.998C106.666 113.847 106.32 113.694 105.968 113.542L106.188 113.03C106.543 113.183 106.891 113.336 107.231 113.488Z" fill="#171717"/>
<path d="M29.915 112.547L30.0205 112.806C29.6666 112.95 29.3216 113.094 28.9863 113.237L28.7676 112.725C29.1055 112.58 29.453 112.435 29.8096 112.289L29.915 112.547Z" fill="#171717"/>
<path d="M105.132 112.582L105.024 112.84L104.918 113.097C104.576 112.954 104.228 112.813 103.875 112.671L104.083 112.153C104.438 112.296 104.788 112.439 105.132 112.582Z" fill="#171717"/>
<path d="M32.1045 111.99C31.7471 112.124 31.3972 112.258 31.0557 112.392L30.8525 111.872C31.1966 111.738 31.5492 111.603 31.9092 111.469L32.1045 111.99Z" fill="#171717"/>
<path d="M103.022 111.734L102.82 112.255C102.471 112.12 102.116 111.985 101.756 111.851L101.951 111.327C102.313 111.462 102.671 111.598 103.022 111.734Z" fill="#171717"/>
<path d="M34.124 110.973L34.2148 111.236C33.8582 111.358 33.5072 111.481 33.1641 111.604L32.9766 111.078C33.3221 110.955 33.6751 110.832 34.0342 110.709L34.124 110.973Z" fill="#171717"/>
<path d="M100.887 110.938L100.698 111.463C100.345 111.336 99.9867 111.21 99.624 111.085L99.8057 110.558C100.171 110.684 100.531 110.81 100.887 110.938Z" fill="#171717"/>
<path d="M36.2676 110.273L36.3506 110.54C35.9882 110.653 35.6315 110.767 35.2812 110.881L35.1943 110.616L35.1084 110.351C35.461 110.236 35.8198 110.121 36.1846 110.008L36.2676 110.273Z" fill="#171717"/>
<path d="M98.7305 110.193L98.5547 110.723C98.1992 110.605 97.8386 110.489 97.4746 110.373L97.6436 109.841C98.0098 109.957 98.3727 110.075 98.7305 110.193Z" fill="#171717"/>
<path d="M38.4307 109.631L38.5059 109.899C38.1383 110.004 37.7764 110.109 37.4199 110.215L37.2607 109.68C37.6196 109.573 37.9845 109.468 38.3545 109.363L38.4307 109.631Z" fill="#171717"/>
<path d="M96.5557 109.503L96.3936 110.036C96.0359 109.927 95.674 109.819 95.3086 109.713L95.4639 109.178C95.8315 109.285 96.1957 109.393 96.5557 109.503Z" fill="#171717"/>
<path d="M40.6699 109.315C40.3007 109.41 39.9363 109.507 39.5771 109.604L39.5049 109.334L39.4316 109.065C39.793 108.968 40.1598 108.871 40.5312 108.775L40.6699 109.315Z" fill="#171717"/>
<path d="M94.3662 108.864L94.2158 109.402C93.8558 109.302 93.4921 109.203 93.125 109.105L93.2676 108.566C93.637 108.664 94.0039 108.764 94.3662 108.864Z" fill="#171717"/>
<path d="M42.7852 108.513L42.8477 108.784C42.4774 108.87 42.1111 108.958 41.75 109.046L41.6182 108.504C41.9812 108.415 42.3494 108.327 42.7217 108.241L42.7852 108.513Z" fill="#171717"/>
<path d="M92.1611 108.28L92.0244 108.821C91.662 108.73 91.2956 108.64 90.9268 108.552L91.0576 108.01C91.4286 108.099 91.7966 108.188 92.1611 108.28Z" fill="#171717"/>
<path d="M45.04 108.304C44.6682 108.381 44.2999 108.459 43.9365 108.539L43.8174 107.994C44.1828 107.914 44.5529 107.835 44.9268 107.758L45.04 108.304Z" fill="#171717"/>
<path d="M89.9443 107.751L89.8213 108.294C89.4563 108.211 89.0877 108.131 88.7168 108.052L88.833 107.506C89.2062 107.586 89.5772 107.668 89.9443 107.751Z" fill="#171717"/>
<path d="M47.2432 107.872C46.8695 107.941 46.4996 108.011 46.1338 108.083L46.0264 107.535C46.3941 107.463 46.7659 107.393 47.1416 107.323L47.2432 107.872Z" fill="#171717"/>
<path d="M87.7148 107.274L87.6055 107.821C87.2381 107.747 86.8671 107.675 86.4941 107.604L86.5977 107.057C86.9728 107.127 87.3453 107.2 87.7148 107.274Z" fill="#171717"/>
<path d="M49.457 107.487C49.081 107.548 48.7085 107.612 48.3398 107.676L48.2441 107.126C48.6149 107.062 48.99 106.999 49.3682 106.938L49.457 107.487Z" fill="#171717"/>
<path d="M85.4756 106.852L85.4277 107.127L85.3789 107.401C85.0092 107.336 84.6367 107.273 84.2617 107.212L84.3057 106.937L84.3516 106.661C84.7288 106.723 85.1037 106.786 85.4756 106.852Z" fill="#171717"/>
<path d="M51.6338 106.875L51.6729 107.151C51.2968 107.205 50.9238 107.259 50.5547 107.315L50.4707 106.764C50.8418 106.707 51.2176 106.652 51.5957 106.599L51.6338 106.875Z" fill="#171717"/>
<path d="M83.2266 106.483L83.1846 106.76L83.1436 107.035C82.7712 106.979 82.3959 106.924 82.0186 106.872L82.0947 106.319C82.4743 106.372 82.852 106.427 83.2266 106.483Z" fill="#171717"/>
<path d="M53.8604 106.583L53.8945 106.859C53.5194 106.905 53.147 106.953 52.7783 107.001L52.7061 106.447C53.0764 106.399 53.4504 106.352 53.8271 106.307L53.8604 106.583Z" fill="#171717"/>
<path d="M56.0938 106.335L56.1221 106.611C55.7484 106.649 55.3774 106.689 55.0098 106.729L54.9795 106.453L54.9482 106.176C55.3177 106.135 55.691 106.095 56.0664 106.057L56.0938 106.335Z" fill="#171717"/>
<path d="M80.9688 106.171L80.8994 106.724C80.5244 106.676 80.1463 106.63 79.7666 106.587L79.8301 106.033C80.2119 106.077 80.5916 106.123 80.9688 106.171Z" fill="#171717"/>
<path d="M58.334 106.128L58.3574 106.406C57.9857 106.437 57.6162 106.469 57.25 106.503L57.1992 105.947C57.5671 105.913 57.9381 105.881 58.3115 105.851L58.334 106.128Z" fill="#171717"/>
<path d="M78.7041 105.911L78.6475 106.467C78.2724 106.428 77.8951 106.392 77.5156 106.357L77.5654 105.802C77.9472 105.836 78.3268 105.873 78.7041 105.911Z" fill="#171717"/>
<path d="M60.582 105.964L60.6006 106.242C60.225 106.266 59.8516 106.291 59.4814 106.318L59.4404 105.762C59.8122 105.734 60.1872 105.71 60.5645 105.686L60.582 105.964Z" fill="#171717"/>
<path d="M76.4326 105.706L76.3896 106.263C76.0149 106.233 75.6376 106.207 75.2588 106.182L75.2764 105.903L75.2949 105.625C75.6761 105.65 76.0556 105.677 76.4326 105.706Z" fill="#171717"/>
<path d="M62.8496 106.118C62.4697 106.136 62.0924 106.154 61.7178 106.175L61.7012 105.896L61.6865 105.618C62.063 105.597 62.4425 105.578 62.8242 105.561L62.8496 106.118Z" fill="#171717"/>
<path d="M74.1553 105.557L74.125 106.113C73.751 106.093 73.3749 106.075 72.9971 106.06L73.0205 105.502C73.4006 105.518 73.779 105.536 74.1553 105.557Z" fill="#171717"/>
<path d="M65.084 106.033C64.707 106.044 64.332 106.057 63.96 106.071L63.9395 105.514C64.3131 105.5 64.6898 105.487 65.0684 105.476L65.084 106.033Z" fill="#171717"/>
<path d="M71.874 105.461L71.8564 106.019C71.4833 106.007 71.1082 105.999 70.7314 105.992L70.7412 105.435C71.1205 105.441 71.4984 105.45 71.874 105.461Z" fill="#171717"/>
<path d="M67.3232 105.708L67.3262 105.987C66.9526 105.992 66.5809 105.998 66.2119 106.006L66.207 105.727L66.2012 105.447C66.5716 105.44 66.9443 105.434 67.3193 105.43L67.3232 105.708Z" fill="#171717"/>
<path d="M69.5986 105.421L69.5957 105.979C69.4056 105.977 69.2144 105.977 69.0234 105.977C68.8334 105.977 68.644 105.977 68.4551 105.978L68.4521 105.42C68.6419 105.419 68.8326 105.419 69.0234 105.419C69.2154 105.419 69.4075 105.42 69.5986 105.421Z" fill="#171717"/>
<path d="M128.197 105.278L128.08 105.531L127.962 105.784C127.672 105.65 127.34 105.499 126.967 105.334L127.08 105.079L127.192 104.823C127.569 104.99 127.905 105.143 128.197 105.278Z" fill="#171717"/>
<path d="M126.175 104.383L125.957 104.896C125.639 104.76 125.3 104.618 124.939 104.471L125.15 103.955C125.513 104.104 125.855 104.247 126.175 104.383Z" fill="#171717"/>
<path d="M124.122 103.541L124.02 103.8L123.917 104.06C123.588 103.93 123.245 103.796 122.888 103.659L123.087 103.138C123.446 103.275 123.792 103.41 124.122 103.541Z" fill="#171717"/>
<path d="M11.791 103.226C11.4162 103.392 11.0831 103.545 10.793 103.681L10.5566 103.176C10.85 103.038 11.1862 102.884 11.5645 102.716L11.791 103.226Z" fill="#171717"/>
<path d="M122.044 102.744L121.947 103.006L121.85 103.268C121.515 103.143 121.168 103.017 120.812 102.889L120.906 102.626L121 102.363C121.359 102.492 121.707 102.619 122.044 102.744Z" fill="#171717"/>
<path d="M13.8066 102.367C13.4481 102.514 13.1104 102.655 12.7939 102.79L12.5752 102.276C12.8941 102.141 13.2345 101.998 13.5957 101.851L13.8066 102.367Z" fill="#171717"/>
<path d="M119.964 101.995L119.78 102.522C119.441 102.404 119.092 102.283 118.734 102.162L118.823 101.898L118.913 101.634C119.272 101.755 119.622 101.876 119.964 101.995Z" fill="#171717"/>
<path d="M15.7578 101.301L15.8564 101.561C15.4995 101.696 15.1566 101.829 14.8281 101.958L14.623 101.438C14.9539 101.308 15.2999 101.175 15.6592 101.039L15.7578 101.301Z" fill="#171717"/>
<path d="M117.855 101.281L117.681 101.811C117.341 101.699 116.994 101.586 116.641 101.473L116.811 100.941C117.166 101.055 117.514 101.169 117.855 101.281Z" fill="#171717"/>
<path d="M17.917 100.808C17.5653 100.932 17.2235 101.055 16.8926 101.176L16.7012 100.651C17.0339 100.53 17.3778 100.407 17.7314 100.282L17.917 100.808Z" fill="#171717"/>
<path d="M115.746 100.605L115.58 101.139C115.236 101.032 114.886 100.925 114.53 100.817L114.691 100.283C115.049 100.391 115.401 100.498 115.746 100.605Z" fill="#171717"/>
<path d="M113.628 99.9668L113.471 100.502C113.123 100.4 112.768 100.298 112.409 100.195L112.485 99.9268L112.562 99.6592C112.923 99.7619 113.278 99.8643 113.628 99.9668Z" fill="#171717"/>
<path d="M20.0049 100.097C19.6461 100.215 19.2956 100.332 18.9541 100.448L18.8633 100.185L18.7734 99.9209C19.117 99.8039 19.4701 99.6851 19.8311 99.5664L20.0049 100.097Z" fill="#171717"/>
<path d="M111.498 99.3594L111.35 99.8975C110.998 99.8003 110.642 99.7025 110.281 99.6055L110.354 99.3369L110.425 99.0674C110.787 99.1648 111.146 99.2618 111.498 99.3594Z" fill="#171717"/>
<path d="M22.0918 99.4336C21.7352 99.543 21.3853 99.652 21.043 99.7607L20.874 99.2295C21.2181 99.1202 21.5703 99.0104 21.9287 98.9004L22.0918 99.4336Z" fill="#171717"/>
<path d="M109.358 98.7852L109.218 99.3242C108.865 99.2322 108.507 99.1404 108.146 99.0488L108.213 98.7783L108.282 98.5088C108.645 98.6007 109.004 98.6928 109.358 98.7852Z" fill="#171717"/>
<path d="M24.1982 98.8086C23.8435 98.9101 23.4941 99.0127 23.1514 99.1143L23.0732 98.8467L22.9932 98.5791C23.3375 98.4771 23.6885 98.3754 24.0449 98.2734L24.1982 98.8086Z" fill="#171717"/>
<path d="M107.209 98.2402L107.076 98.7822C106.722 98.6953 106.364 98.6087 106.002 98.5225L106.132 97.9795C106.495 98.066 106.854 98.153 107.209 98.2402Z" fill="#171717"/>
<path d="M26.2461 97.9541L26.3174 98.2236C25.9619 98.3183 25.6115 98.4136 25.2666 98.5088L25.1182 97.9717C25.4647 97.876 25.8167 97.7797 26.1738 97.6846L26.2461 97.9541Z" fill="#171717"/>
<path d="M105.052 97.7266L104.927 98.2695C104.573 98.1877 104.214 98.1064 103.853 98.0254L103.975 97.4814C104.337 97.5627 104.697 97.6445 105.052 97.7266Z" fill="#171717"/>
<path d="M28.4482 97.6768C28.0905 97.7653 27.737 97.8539 27.3887 97.9434L27.25 97.4033C27.5997 97.3135 27.9543 97.2236 28.3135 97.1348L28.4482 97.6768Z" fill="#171717"/>
<path d="M102.886 97.2412L102.827 97.5137L102.768 97.7861C102.414 97.7094 102.057 97.6333 101.696 97.5576L101.754 97.2842L101.811 97.0117C102.172 97.0877 102.531 97.1642 102.886 97.2412Z" fill="#171717"/>
<path d="M30.5869 97.167C30.228 97.2493 29.8729 97.3325 29.5225 97.416L29.3926 96.873C29.7446 96.7892 30.1014 96.7057 30.4619 96.623L30.5869 97.167Z" fill="#171717"/>
<path d="M100.716 96.7852L100.604 97.332C100.25 97.26 99.892 97.1891 99.5312 97.1182L99.6387 96.5703C100.001 96.6414 100.36 96.7129 100.716 96.7852Z" fill="#171717"/>
<path d="M32.7334 96.6934C32.3741 96.7694 32.0186 96.8464 31.667 96.9238L31.6064 96.6514L31.5469 96.3789C31.9 96.3011 32.2573 96.2248 32.6182 96.1484L32.7334 96.6934Z" fill="#171717"/>
<path d="M98.5479 96.3594L98.4443 96.9072C98.0852 96.839 97.7225 96.772 97.3574 96.7051L97.4082 96.4307L97.458 96.1562C97.8242 96.2234 98.1876 96.291 98.5479 96.3594Z" fill="#171717"/>
<path d="M96.373 95.9609L96.2754 96.5098C95.912 96.4455 95.5458 96.3813 95.1768 96.3184L95.2705 95.7686C95.6407 95.8317 96.0085 95.8964 96.373 95.9609Z" fill="#171717"/>
<path d="M34.8887 96.2559C34.5294 96.3258 34.1735 96.3973 33.8213 96.4688L33.71 95.9219C34.0637 95.8501 34.4214 95.7792 34.7822 95.709L34.8887 96.2559Z" fill="#171717"/>
<path d="M94.1885 95.5879L94.0977 96.1387C93.7364 96.0793 93.3724 96.0208 93.0059 95.9629L93.0928 95.4111C93.4605 95.4692 93.826 95.5284 94.1885 95.5879Z" fill="#171717"/>
<path d="M37.0518 95.8535C36.6906 95.9178 36.3322 95.9828 35.9775 96.0488L35.9268 95.7744L35.875 95.501C36.2312 95.4347 36.5914 95.3692 36.9541 95.3047L37.0518 95.8535Z" fill="#171717"/>
<path d="M91.9941 95.2412L91.9102 95.792C91.551 95.7375 91.1892 95.6839 90.8252 95.6309L90.9053 95.0791C91.2705 95.1323 91.6338 95.1865 91.9941 95.2412Z" fill="#171717"/>
<path d="M39.1787 95.21L39.2227 95.4844C38.858 95.5433 38.4962 95.6032 38.1377 95.6641L38.0908 95.3896L38.0449 95.1152C38.4048 95.0542 38.7678 94.9937 39.1338 94.9346L39.1787 95.21Z" fill="#171717"/>
<path d="M89.8027 94.9219L89.7637 95.1982L89.7256 95.4746C89.3642 95.4241 88.9999 95.3741 88.6338 95.3252L88.708 94.7725C89.0751 94.8215 89.4403 94.8712 89.8027 94.9219Z" fill="#171717"/>
<path d="M41.4033 95.1504C41.0348 95.2041 40.6684 95.2587 40.3057 95.3145L40.2217 94.7627C40.5858 94.7068 40.9533 94.6525 41.3232 94.5986L41.4033 95.1504Z" fill="#171717"/>
<path d="M87.6133 94.6289L87.543 95.1826C87.1769 95.1358 86.808 95.0901 86.4375 95.0449L86.5049 94.4902C86.8766 94.5355 87.2461 94.582 87.6133 94.6289Z" fill="#171717"/>
<path d="M43.5771 94.8506C43.2097 94.8984 42.8445 94.9472 42.4824 94.9971L42.4053 94.4453C42.7689 94.3952 43.1358 94.3458 43.5049 94.2979L43.5771 94.8506Z" fill="#171717"/>
<path d="M85.4131 94.3604L85.3486 94.915C84.9854 94.8729 84.6194 94.8316 84.252 94.791L84.2832 94.5137L84.3135 94.2363C84.6819 94.277 85.0489 94.3181 85.4131 94.3604Z" fill="#171717"/>
<path d="M45.7549 94.584C45.3895 94.6259 45.0264 94.6698 44.666 94.7139L44.5986 94.1592C44.9603 94.1149 45.3248 94.0724 45.6914 94.0303L45.7549 94.584Z" fill="#171717"/>
<path d="M83.2021 94.1172L83.1436 94.6719C82.7826 94.6341 82.4196 94.5967 82.0547 94.5605L82.1094 94.0059C82.4753 94.0421 82.8402 94.0793 83.2021 94.1172Z" fill="#171717"/>
<path d="M47.9424 94.3496C47.5792 94.3858 47.2179 94.4235 46.8594 94.4619L46.8301 94.1836L46.7998 93.9062C47.1597 93.8677 47.5222 93.8313 47.8867 93.7949L47.9424 94.3496Z" fill="#171717"/>
<path d="M81.0078 93.8994L80.9814 94.1777L80.9561 94.4551C80.588 94.4207 80.2177 94.3871 79.8457 94.3545L79.8701 94.0771L79.8936 93.7988C80.2668 93.8316 80.6385 93.8649 81.0078 93.8994Z" fill="#171717"/>
<path d="M78.8008 93.7061L78.7549 94.2617C78.3902 94.2317 78.0237 94.2021 77.6553 94.1738L77.6973 93.6182C78.0668 93.6465 78.435 93.676 78.8008 93.7061Z" fill="#171717"/>
<path d="M50.1387 94.1465C49.77 94.1778 49.4033 94.2105 49.0391 94.2441L48.9883 93.6885C49.3537 93.6548 49.7219 93.6222 50.0918 93.5908L50.1387 94.1465Z" fill="#171717"/>
<path d="M76.583 93.5361L76.5635 93.8135L76.543 94.0918C76.1805 94.066 75.8161 94.0407 75.4502 94.0166L75.4873 93.4609C75.8543 93.4851 76.2195 93.5102 76.583 93.5361Z" fill="#171717"/>
<path d="M52.3301 93.9766C51.9608 94.0025 51.5936 94.0303 51.2285 94.0586L51.1846 93.502C51.5511 93.4735 51.9202 93.446 52.291 93.4199L52.3301 93.9766Z" fill="#171717"/>
<path d="M74.3838 93.3906L74.3496 93.9473C73.9812 93.9249 73.6111 93.9033 73.2393 93.8828L73.2695 93.3262C73.6425 93.3468 74.0142 93.3682 74.3838 93.3906Z" fill="#171717"/>
<path d="M54.5205 93.8389C54.1541 93.8594 53.7892 93.8814 53.4268 93.9043L53.4082 93.626L53.3916 93.3477C53.7551 93.3247 54.1208 93.3028 54.4883 93.2822L54.5205 93.8389Z" fill="#171717"/>
<path d="M72.1689 93.2686L72.1416 93.8252C71.7767 93.807 71.4091 93.7899 71.041 93.7734L71.0664 93.2158C71.4355 93.2323 71.8031 93.2503 72.1689 93.2686Z" fill="#171717"/>
<path d="M56.7197 93.7314C56.3532 93.7467 55.9878 93.7635 55.625 93.7812L55.6123 93.502L55.5986 93.2236C55.9627 93.2059 56.3294 93.1892 56.6973 93.1738L56.7197 93.7314Z" fill="#171717"/>
<path d="M69.3945 93.1484C69.5814 93.1553 69.7681 93.1616 69.9541 93.1689L69.9326 93.7266C69.747 93.7192 69.5605 93.7119 69.374 93.7051C69.1885 93.6982 69.0031 93.6917 68.8184 93.6855L68.8369 93.1279C69.0223 93.1341 69.2084 93.1416 69.3945 93.1484Z" fill="#171717"/>
<path d="M58.9238 93.6543C58.5529 93.6646 58.1836 93.6767 57.8164 93.6895L57.7969 93.1318C58.1654 93.119 58.536 93.108 58.9082 93.0977L58.9238 93.6543Z" fill="#171717"/>
<path d="M67.7285 93.0947L67.7129 93.6523C67.3463 93.6425 66.9808 93.6343 66.6172 93.627L66.6289 93.0693C66.9938 93.0767 67.3606 93.0849 67.7285 93.0947Z" fill="#171717"/>
<path d="M61.1152 93.6094C60.7478 93.6145 60.3816 93.6204 60.0176 93.6279L60.0059 93.0703C60.3712 93.0627 60.7386 93.0569 61.1074 93.0518L61.1152 93.6094Z" fill="#171717"/>
<path d="M65.5283 93.0508L65.5205 93.6084C65.1502 93.6034 64.7812 93.6001 64.4141 93.5977L64.418 93.04C64.7865 93.0425 65.1566 93.0458 65.5283 93.0508Z" fill="#171717"/>
<path d="M63.3174 93.5938C62.951 93.5938 62.5857 93.5951 62.2227 93.5977L62.2188 93.04C62.5831 93.0375 62.9498 93.0362 63.3174 93.0361V93.5938Z" fill="#171717"/>
<path d="M135.173 89.8105L135.08 90.0732L134.986 90.3359C134.684 90.2284 134.337 90.107 133.949 89.9736L134.131 89.4463C134.521 89.5803 134.869 89.7024 135.173 89.8105Z" fill="#171717"/>
<path d="M133.082 89.0908L132.993 89.3555L132.905 89.6201C132.578 89.5108 132.229 89.3954 131.86 89.2754L131.947 89.0107L132.033 88.7451C132.403 88.8656 132.754 88.9811 133.082 89.0908Z" fill="#171717"/>
<path d="M130.981 88.4072L130.812 88.9385C130.475 88.8312 130.122 88.7207 129.757 88.6074L129.839 88.3408L129.922 88.0742C130.289 88.1879 130.642 88.2995 130.981 88.4072Z" fill="#171717"/>
<path d="M128.858 87.749L128.697 88.2832C128.359 88.1809 128.011 88.0756 127.653 87.9697L127.812 87.4355C128.17 87.5417 128.52 87.6464 128.858 87.749Z" fill="#171717"/>
<path d="M126.747 87.124L126.593 87.6592C126.247 87.559 125.892 87.458 125.529 87.3555L125.682 86.8193C126.045 86.9221 126.4 87.0236 126.747 87.124Z" fill="#171717"/>
<path d="M124.625 86.5234L124.552 86.792L124.477 87.0605C124.125 86.9632 123.766 86.8654 123.401 86.7666L123.547 86.2285C123.913 86.3276 124.272 86.4258 124.625 86.5234Z" fill="#171717"/>
<path d="M5.19238 86.6973C4.79272 86.8155 4.43785 86.9236 4.12891 87.0205L3.96289 86.4883C4.27463 86.3905 4.63176 86.2812 5.03418 86.1621L5.19238 86.6973Z" fill="#171717"/>
<path d="M122.493 85.9453L122.351 86.4844C121.998 86.391 121.639 86.2983 121.275 86.2041L121.346 85.9336L121.415 85.6631C121.78 85.7576 122.14 85.8517 122.493 85.9453Z" fill="#171717"/>
<path d="M7.36523 86.085C6.97939 86.1887 6.61654 86.2893 6.27734 86.3848L6.20117 86.1162L6.12598 85.8477C6.46715 85.7517 6.83193 85.6512 7.21973 85.5469L7.36523 86.085Z" fill="#171717"/>
<path d="M120.354 85.3916L120.217 85.9326C119.863 85.8431 119.504 85.7531 119.141 85.6631L119.274 85.1211C119.639 85.2113 119.999 85.3018 120.354 85.3916Z" fill="#171717"/>
<path d="M9.54492 85.5225C9.16571 85.6164 8.8022 85.7091 8.4541 85.7988L8.31445 85.2588C8.66445 85.1686 9.02999 85.0758 9.41113 84.9814L9.54492 85.5225Z" fill="#171717"/>
<path d="M118.209 84.8604L118.145 85.1318L118.078 85.4033C117.723 85.3173 117.363 85.2306 116.999 85.1445L117.062 84.873L117.127 84.6016C117.492 84.6878 117.853 84.7742 118.209 84.8604Z" fill="#171717"/>
<path d="M11.7549 84.9961C11.3729 85.0837 11.0024 85.1706 10.6445 85.2559L10.5156 84.7129C10.8749 84.6273 11.2466 84.5401 11.6299 84.4521L11.7549 84.9961Z" fill="#171717"/>
<path d="M116.061 84.3525L115.935 84.8955C115.577 84.8129 115.214 84.7308 114.849 84.6484L114.972 84.1045C115.338 84.1871 115.702 84.2697 116.061 84.3525Z" fill="#171717"/>
<path d="M13.9443 84.5117C13.5679 84.5921 13.2003 84.6718 12.8428 84.751L12.7832 84.4785L12.7227 84.2061C13.0815 84.1266 13.4504 84.0465 13.8281 83.9658L13.9443 84.5117Z" fill="#171717"/>
<path d="M113.905 83.8672L113.785 84.4111C113.427 84.3324 113.066 84.254 112.701 84.1758L112.759 83.9033L112.818 83.6309C113.184 83.7093 113.547 83.7883 113.905 83.8672Z" fill="#171717"/>
<path d="M16.1533 84.0557C15.7823 84.1295 15.4191 84.2041 15.0635 84.2773L14.9502 83.7305C15.3072 83.6569 15.6725 83.583 16.0449 83.5088L16.1533 84.0557Z" fill="#171717"/>
<path d="M111.744 83.4023L111.688 83.6758L111.63 83.9492C111.273 83.8745 110.912 83.7997 110.549 83.7256L110.66 83.1787C111.024 83.253 111.386 83.3274 111.744 83.4023Z" fill="#171717"/>
<path d="M18.3213 83.3545L18.373 83.6289C17.9981 83.6986 17.629 83.7684 17.2676 83.8379L17.1621 83.29C17.5246 83.2203 17.8944 83.15 18.2705 83.0801L18.3213 83.3545Z" fill="#171717"/>
<path d="M109.576 82.9609L109.468 83.5078C109.112 83.4371 108.752 83.3668 108.391 83.2969L108.443 83.0234L108.497 82.75C108.859 82.82 109.219 82.8901 109.576 82.9609Z" fill="#171717"/>
<path d="M20.5488 82.9551L20.5957 83.2295C20.219 83.2948 19.8481 83.3603 19.4834 83.4258L19.4346 83.1514L19.3848 82.877C19.7506 82.8113 20.1231 82.7452 20.501 82.6797L20.5488 82.9551Z" fill="#171717"/>
<path d="M107.401 82.541L107.35 82.8145L107.299 83.0889C106.944 83.0221 106.586 82.9564 106.226 82.8906L106.326 82.3408C106.687 82.4068 107.046 82.4741 107.401 82.541Z" fill="#171717"/>
<path d="M22.8223 82.8564C22.4453 82.9175 22.0733 82.9787 21.707 83.04L21.6152 82.4902C21.9823 82.4287 22.3547 82.3668 22.7324 82.3057L22.8223 82.8564Z" fill="#171717"/>
<path d="M105.235 82.1455L105.138 82.6943C104.779 82.6306 104.417 82.5675 104.053 82.5049L104.147 81.9551C104.512 82.0179 104.875 82.0816 105.235 82.1455Z" fill="#171717"/>
<path d="M25.0088 82.2324L25.0508 82.5078C24.6747 82.5646 24.303 82.6224 23.9365 82.6797L23.8506 82.1279C24.2181 82.0705 24.5907 82.014 24.9678 81.957L25.0088 82.2324Z" fill="#171717"/>
<path d="M27.2832 82.1826C26.9088 82.2353 26.5386 82.2885 26.1729 82.3418L26.0918 81.79C26.4584 81.7366 26.8298 81.6826 27.2051 81.6299L27.2832 82.1826Z" fill="#171717"/>
<path d="M103.062 81.7705L102.971 82.3213C102.608 82.2607 102.242 82.2 101.874 82.1406L101.963 81.5898C102.331 81.6494 102.698 81.7098 103.062 81.7705Z" fill="#171717"/>
<path d="M29.5195 81.8789C29.1475 81.9275 28.7792 81.977 28.415 82.0264L28.3398 81.4736C28.7051 81.4241 29.0751 81.3749 29.4482 81.3262L29.5195 81.8789Z" fill="#171717"/>
<path d="M100.881 81.418L100.795 81.9688C100.434 81.9123 100.07 81.857 99.7051 81.8018L99.7461 81.5254L99.7881 81.25C100.154 81.3054 100.519 81.3613 100.881 81.418Z" fill="#171717"/>
<path d="M31.7305 81.3203L31.7637 81.5967C31.3886 81.6421 31.0171 81.6881 30.6494 81.7344L30.5791 81.1807C30.9477 81.1343 31.3203 81.0886 31.6963 81.043L31.7305 81.3203Z" fill="#171717"/>
<path d="M98.6914 81.0869L98.6113 81.6387C98.2518 81.5862 97.8896 81.5345 97.5264 81.4834L97.6045 80.9316C97.9685 80.9828 98.3311 81.0344 98.6914 81.0869Z" fill="#171717"/>
<path d="M34.0156 81.334C33.6349 81.3767 33.2574 81.4203 32.8838 81.4639L32.8193 80.9102C33.1938 80.8665 33.5725 80.8231 33.9541 80.7803L34.0156 81.334Z" fill="#171717"/>
<path d="M96.5059 80.7803L96.4316 81.332C96.0699 81.2831 95.706 81.236 95.3408 81.1885L95.4121 80.6348C95.7784 80.6824 96.1431 80.7312 96.5059 80.7803Z" fill="#171717"/>
<path d="M36.2275 80.8154L36.2559 81.0928C35.8761 81.132 35.4992 81.1717 35.126 81.2119L35.0654 80.6572C35.4395 80.6169 35.8175 80.5774 36.1982 80.5381L36.2275 80.8154Z" fill="#171717"/>
<path d="M94.3203 80.4961L94.2852 80.7725L94.251 81.0488C93.8863 81.0033 93.5194 80.959 93.1514 80.915L93.2178 80.3613C93.5868 80.4054 93.9546 80.4505 94.3203 80.4961Z" fill="#171717"/>
<path d="M38.4961 80.8701C38.1205 80.9058 37.7475 80.9429 37.3779 80.9795L37.3506 80.7012L37.3223 80.4248C37.6927 80.3881 38.0669 80.3512 38.4434 80.3154L38.4961 80.8701Z" fill="#171717"/>
<path d="M92.124 80.2334L92.0615 80.7881C91.6987 80.7467 91.3336 80.7058 90.9678 80.666L90.999 80.3887L91.0283 80.1113C91.395 80.1512 91.7604 80.1919 92.124 80.2334Z" fill="#171717"/>
<path d="M40.748 80.666C40.3734 80.6985 40.0009 80.7321 39.6318 80.7656L39.582 80.21C39.9516 80.1764 40.324 80.1429 40.6992 80.1104L40.748 80.666Z" fill="#171717"/>
<path d="M43.0107 80.4785C42.6282 80.5087 42.2481 80.5401 41.8711 80.5713L41.8477 80.293L41.8252 80.0146C42.2029 79.9834 42.5836 79.9531 42.9668 79.9229L43.0107 80.4785Z" fill="#171717"/>
<path d="M89.9238 79.9941L89.8955 80.2715L89.8662 80.5488C89.5044 80.5114 89.141 80.4752 88.7764 80.4395L88.8311 79.8838C89.1966 79.9196 89.5611 79.9566 89.9238 79.9941Z" fill="#171717"/>
<path d="M45.249 80.3105C44.8715 80.3374 44.4964 80.3656 44.124 80.3936L44.082 79.8369C44.4552 79.8089 44.8316 79.7818 45.21 79.7549L45.249 80.3105Z" fill="#171717"/>
<path d="M87.7314 79.7793L87.6807 80.335C87.314 80.301 86.9455 80.2676 86.5762 80.2354L86.625 79.6797C86.9952 79.712 87.364 79.7452 87.7314 79.7793Z" fill="#171717"/>
<path d="M47.4863 79.8799L47.5039 80.1582C47.1306 80.182 46.7592 80.2066 46.3906 80.2314L46.3721 79.9531L46.3525 79.6758C46.7219 79.6509 47.0937 79.6254 47.4678 79.6016L47.4863 79.8799Z" fill="#171717"/>
<path d="M85.5312 79.5869L85.4854 80.1426C85.1208 80.1128 84.7547 80.0847 84.3877 80.0566L84.4297 79.5C84.7978 79.5281 85.1657 79.557 85.5312 79.5869Z" fill="#171717"/>
<path d="M49.7695 80.0225C49.3871 80.0441 49.0065 80.0662 48.6289 80.0889L48.5957 79.5322C48.9739 79.5095 49.3553 79.4875 49.7383 79.4658L49.7695 80.0225Z" fill="#171717"/>
<path d="M83.3213 79.418L83.2822 79.9746C82.9193 79.9489 82.5547 79.9243 82.1895 79.9004L82.2266 79.3438C82.5926 79.3677 82.9576 79.3922 83.3213 79.418Z" fill="#171717"/>
<path d="M52.0117 79.9033C51.6348 79.922 51.2593 79.9412 50.8867 79.9609L50.8574 79.4043C51.2306 79.3845 51.6068 79.3654 51.9844 79.3467L52.0117 79.9033Z" fill="#171717"/>
<path d="M54.2617 79.5205L54.2744 79.7998C53.8974 79.8159 53.5222 79.8325 53.1494 79.8496L53.1357 79.5713L53.124 79.292C53.4974 79.2748 53.8734 79.2583 54.251 79.2422L54.2617 79.5205Z" fill="#171717"/>
<path d="M81.124 79.2754L81.0908 79.832C80.7235 79.8101 80.3549 79.7886 79.9854 79.7686L80.001 79.4902L80.0156 79.2109C80.3862 79.231 80.7557 79.2533 81.124 79.2754Z" fill="#171717"/>
<path d="M56.5195 79.4316L56.5303 79.7109C56.1504 79.7246 55.7723 79.7382 55.3965 79.7529L55.3857 79.4746L55.374 79.1963C55.7505 79.1815 56.1292 79.167 56.5098 79.1533L56.5195 79.4316Z" fill="#171717"/>
<path d="M78.918 79.1553L78.8906 79.7119C78.5253 79.6941 78.1584 79.6779 77.791 79.6621L77.8154 79.1045C78.1839 79.1204 78.5516 79.1374 78.918 79.1553Z" fill="#171717"/>
<path d="M58.7832 79.6377C58.4087 79.6487 58.0357 79.6598 57.665 79.6719L57.6475 79.1143C58.0186 79.1022 58.3916 79.0911 58.7666 79.0801L58.7832 79.6377Z" fill="#171717"/>
<path d="M76.7061 79.0596L76.6855 79.6172C76.3211 79.6035 75.9553 79.5908 75.5889 79.5791L75.6064 79.0215C75.9739 79.0332 76.3406 79.0459 76.7061 79.0596Z" fill="#171717"/>
<path d="M61.0537 79.5781C60.6716 79.5869 60.2913 79.5966 59.9131 79.6064L59.9053 79.3271L59.8984 79.0488C60.2773 79.0389 60.6583 79.0293 61.041 79.0205L61.0537 79.5781Z" fill="#171717"/>
<path d="M63.2988 79.5342C62.9225 79.5405 62.5475 79.5463 62.1748 79.5537L62.1631 78.9971C62.5364 78.9897 62.9121 78.9819 63.2891 78.9756L63.2988 79.5342Z" fill="#171717"/>
<path d="M74.5039 78.9893L74.4971 79.2686L74.4893 79.5479C74.1219 79.5383 73.753 79.529 73.3838 79.5215L73.3906 79.2432L73.3955 78.9639C73.7658 78.9714 74.1355 78.9796 74.5039 78.9893Z" fill="#171717"/>
<path d="M65.5674 79.2236L65.5713 79.5029C65.1905 79.5069 64.8108 79.5115 64.4336 79.5166L64.4258 78.959C64.8036 78.9539 65.184 78.9493 65.5654 78.9453L65.5674 79.2236Z" fill="#171717"/>
<path d="M72.293 78.9453L72.2852 79.5029C71.9199 79.4976 71.5535 79.4925 71.1865 79.4893L71.1885 79.2109L71.1914 78.9316C71.5595 78.9349 71.9266 78.94 72.293 78.9453Z" fill="#171717"/>
<path d="M67.8164 79.4863C67.4389 79.488 67.0626 79.4904 66.6885 79.4932L66.6846 78.9355C67.0593 78.9327 67.4363 78.9304 67.8145 78.9287L67.8164 79.4863Z" fill="#171717"/>
<path d="M70.083 78.9258V79.2041L70.082 79.4834C69.8977 79.4829 69.7121 79.4824 69.5273 79.4824C69.3362 79.4824 69.1453 79.4821 68.9551 79.4824L68.9541 78.9248C69.1447 78.9245 69.3359 78.9248 69.5273 78.9248C69.7126 78.9248 69.8982 78.9252 70.083 78.9258Z" fill="#171717"/>
<path d="M70 66.0957C72.1562 66.0958 73.9043 67.8438 73.9043 70C73.9042 72.1562 72.1562 73.9042 70 73.9043C67.8438 73.9042 66.0958 72.1562 66.0957 70C66.0957 67.8438 67.8438 66.0958 70 66.0957Z" fill="#171717"/>
<path d="M3.04492 70.2793H1.93945V69.7217H3.04492V70.2793Z" fill="#171717"/>
<path d="M5.25879 70.2793H4.15234V69.7217H5.25879V70.2793Z" fill="#171717"/>
<path d="M7.47168 70.2793H6.36621V69.7217H7.47168V70.2793Z" fill="#171717"/>
<path d="M9.68555 70.2793H8.5791V69.7217H9.68555V70.2793Z" fill="#171717"/>
<path d="M11.8984 70.2793H10.793V69.7217H11.8984V70.2793Z" fill="#171717"/>
<path d="M14.1123 70.2793H13.0059V69.7217H14.1123V70.2793Z" fill="#171717"/>
<path d="M16.3252 70.2793H15.2197V69.7217H16.3252V70.2793Z" fill="#171717"/>
<path d="M18.5391 70.2793H17.4326V69.7217H18.5391V70.2793Z" fill="#171717"/>
<path d="M20.752 70.2793H19.6465V69.7217H20.752V70.2793Z" fill="#171717"/>
<path d="M22.9658 70.2793H21.8594V69.7217H22.9658V70.2793Z" fill="#171717"/>
<path d="M25.1787 70.2793H24.0732V69.7217H25.1787V70.2793Z" fill="#171717"/>
<path d="M27.3926 70.2793H26.2861V69.7217H27.3926V70.2793Z" fill="#171717"/>
<path d="M29.6055 70.2793H28.5V69.7217H29.6055V70.2793Z" fill="#171717"/>
<path d="M31.8193 70.2793H30.7129V69.7217H31.8193V70.2793Z" fill="#171717"/>
<path d="M34.0322 70.2793H32.9268V69.7217H34.0322V70.2793Z" fill="#171717"/>
<path d="M36.2461 70.2793H35.1396V69.7217H36.2461V70.2793Z" fill="#171717"/>
<path d="M38.459 70.2793H37.3525V69.7217H38.459V70.2793Z" fill="#171717"/>
<path d="M40.6729 70.2793H39.5664V69.7217H40.6729V70.2793Z" fill="#171717"/>
<path d="M42.8857 70.2793H41.7793V69.7217H42.8857V70.2793Z" fill="#171717"/>
<path d="M45.0996 70.2793H43.9932V69.7217H45.0996V70.2793Z" fill="#171717"/>
<path d="M47.3125 70.2793H46.2061V69.7217H47.3125V70.2793Z" fill="#171717"/>
<path d="M49.5264 70.2793H48.4199V69.7217H49.5264V70.2793Z" fill="#171717"/>
<path d="M51.7393 70.2793H50.6328V69.7217H51.7393V70.2793Z" fill="#171717"/>
<path d="M53.9531 70.2793H52.8467V69.7217H53.9531V70.2793Z" fill="#171717"/>
<path d="M56.166 70.2793H55.0596V69.7217H56.166V70.2793Z" fill="#171717"/>
<path d="M58.3799 70.2793H57.2734V69.7217H58.3799V70.2793Z" fill="#171717"/>
<path d="M60.5928 70.2793H59.4863V69.7217H60.5928V70.2793Z" fill="#171717"/>
<path d="M62.8066 70.2793H61.7002V69.7217H62.8066V70.2793Z" fill="#171717"/>
<path d="M65.0195 70.2793H63.9131V69.7217H65.0195V70.2793Z" fill="#171717"/>
<path d="M76.0869 70.2793H74.9805V69.7217H76.0869V70.2793Z" fill="#171717"/>
<path d="M78.2998 70.2793H77.1934V69.7217H78.2998V70.2793Z" fill="#171717"/>
<path d="M80.5137 70.2793H79.4072V69.7217H80.5137V70.2793Z" fill="#171717"/>
<path d="M82.7266 70.2793H81.6201V69.7217H82.7266V70.2793Z" fill="#171717"/>
<path d="M84.9395 70.2793H83.834V69.7217H84.9395V70.2793Z" fill="#171717"/>
<path d="M87.1533 70.2793H86.0469V69.7217H87.1533V70.2793Z" fill="#171717"/>
<path d="M89.3662 70.2793H88.2607V69.7217H89.3662V70.2793Z" fill="#171717"/>
<path d="M91.5801 70.2793H90.4736V69.7217H91.5801V70.2793Z" fill="#171717"/>
<path d="M93.793 70.2793H92.6875V69.7217H93.793V70.2793Z" fill="#171717"/>
<path d="M96.0068 70.2793H94.9004V69.7217H96.0068V70.2793Z" fill="#171717"/>
<path d="M98.2197 70.2793H97.1143V69.7217H98.2197V70.2793Z" fill="#171717"/>
<path d="M100.434 70.2793H99.3271V69.7217H100.434V70.2793Z" fill="#171717"/>
<path d="M102.646 70.2793H101.541V69.7217H102.646V70.2793Z" fill="#171717"/>
<path d="M104.86 70.2793H103.754V69.7217H104.86V70.2793Z" fill="#171717"/>
<path d="M107.073 70.2793H105.968V69.7217H107.073V70.2793Z" fill="#171717"/>
<path d="M109.287 70.2793H108.181V69.7217H109.287V70.2793Z" fill="#171717"/>
<path d="M111.5 70.2793H110.395V69.7217H111.5V70.2793Z" fill="#171717"/>
<path d="M113.714 70.2793H112.607V69.7217H113.714V70.2793Z" fill="#171717"/>
<path d="M115.927 70.2793H114.821V69.7217H115.927V70.2793Z" fill="#171717"/>
<path d="M118.141 70.2793H117.034V69.7217H118.141V70.2793Z" fill="#171717"/>
<path d="M120.354 70.2793H119.248V69.7217H120.354V70.2793Z" fill="#171717"/>
<path d="M122.567 70.2793H121.461V69.7217H122.567V70.2793Z" fill="#171717"/>
<path d="M124.78 70.2793H123.675V69.7217H124.78V70.2793Z" fill="#171717"/>
<path d="M126.994 70.2793H125.888V69.7217H126.994V70.2793Z" fill="#171717"/>
<path d="M129.207 70.2793H128.102V69.7217H129.207V70.2793Z" fill="#171717"/>
<path d="M131.421 70.2793H130.314V69.7217H131.421V70.2793Z" fill="#171717"/>
<path d="M133.634 70.2793H132.528V69.7217H133.634V70.2793Z" fill="#171717"/>
<path d="M135.848 70.2793H134.741V69.7217H135.848V70.2793Z" fill="#171717"/>
<path d="M138.061 70.2793H136.955V69.7217H138.061V70.2793Z" fill="#171717"/>
<path d="M70.5576 59.123C70.3722 59.1232 70.1862 59.124 70 59.124C69.8118 59.124 69.6236 59.1236 69.4355 59.123L69.4365 58.8438V58.5654C69.6242 58.566 69.8122 58.5664 70 58.5664C70.1861 58.5664 70.3723 58.5656 70.5576 58.5654V59.123Z" fill="#171717"/>
<path d="M72.7637 59.1172C72.3996 59.1189 72.0334 59.1201 71.666 59.1211L71.6641 58.5635C72.0312 58.5624 72.3969 58.5613 72.7607 58.5596L72.7637 59.1172Z" fill="#171717"/>
<path d="M68.3115 58.5596L68.3066 59.1172C67.931 59.1141 67.5555 59.1096 67.1807 59.1045L67.1885 58.5469C67.5624 58.552 67.9369 58.5565 68.3115 58.5596Z" fill="#171717"/>
<path d="M74.9492 58.8242L74.9512 59.1025C74.5864 59.1056 74.2198 59.1089 73.8516 59.1113L73.8477 58.5537C74.2155 58.5513 74.5819 58.548 74.9463 58.5449L74.9492 58.8242Z" fill="#171717"/>
<path d="M77.1523 58.8008L77.1553 59.0801C76.7915 59.0846 76.4258 59.0889 76.0586 59.0928L76.0527 58.5352C76.4196 58.5313 76.7851 58.527 77.1484 58.5225L77.1523 58.8008Z" fill="#171717"/>
<path d="M66.0635 58.5283L66.0576 58.8066L66.0527 59.0859C65.6765 59.0788 65.3002 59.0706 64.9248 59.0615L64.9385 58.5039C65.313 58.513 65.6881 58.5212 66.0635 58.5283Z" fill="#171717"/>
<path d="M79.3467 59.0488C78.9801 59.0548 78.6115 59.0601 78.2412 59.0654L78.2334 58.5078C78.603 58.5025 78.971 58.4962 79.3369 58.4902L79.3467 59.0488Z" fill="#171717"/>
<path d="M63.8164 58.4736L63.7998 59.0312C63.4234 59.0202 63.0472 59.0081 62.6719 58.9951L62.6816 58.7168L62.6904 58.4375C63.065 58.4504 63.4408 58.4626 63.8164 58.4736Z" fill="#171717"/>
<path d="M81.5449 59.0078C81.1824 59.0152 80.8175 59.0225 80.4512 59.0293L80.4414 58.4717C80.8072 58.4649 81.1712 58.4576 81.5332 58.4502L81.5449 59.0078Z" fill="#171717"/>
<path d="M83.7422 58.958C83.3735 58.9671 83.0027 58.976 82.6299 58.9844L82.6172 58.4268C82.9896 58.4184 83.3602 58.4095 83.7285 58.4004L83.7422 58.958Z" fill="#171717"/>
<path d="M61.5664 58.3955L61.5449 58.9531C61.1698 58.9383 60.7948 58.9229 60.4209 58.9062L60.4463 58.3486C60.819 58.3652 61.1924 58.3807 61.5664 58.3955Z" fill="#171717"/>
<path d="M85.9307 58.8994C85.5701 58.9099 85.2073 58.9199 84.8428 58.9297L84.835 58.6504L84.8281 58.3721C85.1924 58.3623 85.5548 58.3523 85.915 58.3418L85.9307 58.8994Z" fill="#171717"/>
<path d="M88.1357 58.8301C87.7692 58.8424 87.4002 58.8546 87.0293 58.8662L87.0117 58.3086C87.3823 58.297 87.7519 58.2857 88.1182 58.2734L88.1357 58.8301Z" fill="#171717"/>
<path d="M59.3193 58.2959L59.292 58.8535C58.9162 58.835 58.5404 58.8152 58.166 58.7949L58.1973 58.2383C58.5706 58.2585 58.9446 58.2774 59.3193 58.2959Z" fill="#171717"/>
<path d="M90.3154 58.7529C89.9557 58.7666 89.5936 58.779 89.2295 58.792L89.21 58.2354C89.5735 58.2224 89.9348 58.209 90.2939 58.1953L90.3154 58.7529Z" fill="#171717"/>
<path d="M57.0762 58.1748L57.0439 58.7314C56.667 58.7093 56.2904 58.6869 55.915 58.6631L55.9336 58.3848L55.9502 58.1064C56.3246 58.1302 56.7002 58.1527 57.0762 58.1748Z" fill="#171717"/>
<path d="M92.5244 58.6631C92.1613 58.6786 91.7955 58.6941 91.4277 58.709L91.4043 58.1514C91.772 58.1365 92.1379 58.122 92.501 58.1064L92.5244 58.6631Z" fill="#171717"/>
<path d="M94.7168 58.5645C94.3499 58.5819 93.9803 58.5994 93.6084 58.6162L93.583 58.0586C93.9545 58.0418 94.3239 58.0253 94.6904 58.0078L94.7168 58.5645Z" fill="#171717"/>
<path d="M54.8301 58.0322L54.792 58.5889C54.4168 58.5633 54.0414 58.5369 53.668 58.5098L53.709 57.9531C54.0816 57.9802 54.4557 58.0067 54.8301 58.0322Z" fill="#171717"/>
<path d="M96.9023 58.4551C96.5434 58.474 96.1814 58.4925 95.8174 58.5107L95.8027 58.2324L95.7891 57.9531C96.1527 57.9349 96.5144 57.9163 96.873 57.8975L96.9023 58.4551Z" fill="#171717"/>
<path d="M52.584 57.8691L52.542 58.4248C52.1674 58.3959 51.7935 58.3663 51.4209 58.3359L51.4658 57.7803C51.8374 57.8106 52.2104 57.8403 52.584 57.8691Z" fill="#171717"/>
<path d="M99.0908 58.0547L99.1074 58.333C98.7432 58.3541 98.3756 58.3751 98.0059 58.3955L97.9756 57.8389C98.3448 57.8185 98.7115 57.7974 99.0752 57.7764L99.0908 58.0547Z" fill="#171717"/>
<path d="M101.296 58.2012C100.931 58.2242 100.563 58.2471 100.192 58.2695L100.158 57.7119C100.529 57.6895 100.896 57.6675 101.261 57.6445L101.296 58.2012Z" fill="#171717"/>
<path d="M50.3438 57.6865L50.2959 58.2422C49.9202 58.2099 49.5454 58.1763 49.1719 58.1426L49.2217 57.5879C49.5944 57.6215 49.9688 57.6543 50.3438 57.6865Z" fill="#171717"/>
<path d="M103.478 58.0566C103.12 58.0812 102.759 58.1059 102.396 58.1299L102.377 57.8516L102.359 57.5732C102.722 57.5493 103.082 57.5255 103.439 57.501L103.478 58.0566Z" fill="#171717"/>
<path d="M48.1074 57.4844L48.0811 57.7627L48.0537 58.04C47.6772 58.0045 47.3017 57.9686 46.9277 57.9316L46.9824 57.376C47.3559 57.4129 47.7315 57.4488 48.1074 57.4844Z" fill="#171717"/>
<path d="M105.682 57.8994C105.32 57.9264 104.954 57.9531 104.586 57.9795L104.565 57.7012L104.546 57.4229C104.914 57.3965 105.278 57.3707 105.64 57.3438L105.682 57.8994Z" fill="#171717"/>
<path d="M45.8643 57.2627L45.8359 57.541L45.8066 57.8184C45.4329 57.7799 45.0605 57.7399 44.6895 57.7002L44.7188 57.4229L44.749 57.1455C45.1193 57.1852 45.4913 57.2243 45.8643 57.2627Z" fill="#171717"/>
<path d="M107.874 57.7295C107.508 57.759 107.138 57.7885 106.765 57.8174L106.722 57.2607C107.094 57.2319 107.464 57.2033 107.829 57.1738L107.874 57.7295Z" fill="#171717"/>
<path d="M110.033 57.2686L110.058 57.5469C109.696 57.5783 109.331 57.6098 108.962 57.6406L108.915 57.085C109.284 57.0541 109.649 57.0226 110.01 56.9912L110.033 57.2686Z" fill="#171717"/>
<path d="M43.626 57.0234L43.5947 57.3008L43.5645 57.5781C43.1909 57.5366 42.8179 57.4939 42.4473 57.4512L42.5117 56.8975C42.8815 56.9401 43.2532 56.982 43.626 57.0234Z" fill="#171717"/>
<path d="M112.236 57.3506C111.88 57.3838 111.52 57.4164 111.156 57.4492L111.106 56.8945C111.469 56.8618 111.829 56.8291 112.184 56.7959L112.236 57.3506Z" fill="#171717"/>
<path d="M41.3926 56.7656L41.3604 57.043L41.3262 57.3193C40.9512 57.2746 40.5777 57.2294 40.2061 57.1836L40.2744 56.6309C40.6454 56.6766 41.0183 56.721 41.3926 56.7656Z" fill="#171717"/>
<path d="M114.428 57.1377C114.071 57.1735 113.711 57.2097 113.346 57.2451L113.291 56.6895C113.656 56.6541 114.017 56.6188 114.373 56.583L114.428 57.1377Z" fill="#171717"/>
<path d="M39.165 56.4912L39.0947 57.0439C38.718 56.996 38.3427 56.9484 37.9697 56.8994L38.042 56.3457C38.4144 56.3946 38.7889 56.4434 39.165 56.4912Z" fill="#171717"/>
<path d="M116.618 56.9102C116.26 56.9488 115.897 56.9871 115.529 57.0254L115.472 56.4707C115.839 56.4325 116.201 56.394 116.559 56.3555L116.618 56.9102Z" fill="#171717"/>
<path d="M118.805 56.666C118.446 56.7075 118.081 56.7488 117.712 56.79L117.649 56.2363C118.018 56.1951 118.382 56.1537 118.74 56.1123L118.805 56.666Z" fill="#171717"/>
<path d="M36.9307 56.1982L36.8936 56.4746L36.8555 56.751C36.4811 56.7004 36.1086 56.6491 35.7383 56.5977L35.8145 56.0459C36.1842 56.0973 36.5568 56.1477 36.9307 56.1982Z" fill="#171717"/>
<path d="M120.986 56.4043C120.628 56.4487 120.264 56.4937 119.894 56.5381L119.827 55.9834C120.197 55.9391 120.561 55.8949 120.918 55.8506L120.986 56.4043Z" fill="#171717"/>
<path d="M34.6992 55.8877L34.6592 56.1641L34.6201 56.4404C34.2486 56.3874 33.8788 56.3331 33.5117 56.2793L33.5928 55.7275C33.9592 55.7813 34.3284 55.8347 34.6992 55.8877Z" fill="#171717"/>
<path d="M123.126 55.8486L123.163 56.125C122.808 56.1723 122.445 56.2201 122.076 56.2676L122.004 55.7139C122.372 55.6665 122.735 55.6185 123.09 55.5713L123.126 55.8486Z" fill="#171717"/>
<path d="M32.4717 55.5615L32.4307 55.8369L32.3887 56.1133C32.0171 56.0574 31.6479 56.0009 31.2812 55.9443L31.3662 55.3926C31.7322 55.449 32.1008 55.5057 32.4717 55.5615Z" fill="#171717"/>
<path d="M125.294 55.5488L125.333 55.8252C124.982 55.8753 124.623 55.926 124.257 55.9766L124.181 55.4238C124.546 55.3734 124.904 55.3235 125.254 55.2734L125.294 55.5488Z" fill="#171717"/>
<path d="M30.249 55.2188L30.2061 55.4941L30.1621 55.7695C29.789 55.7106 29.4183 55.6513 29.0508 55.5918L29.1406 55.041C29.5073 55.1004 29.8768 55.1599 30.249 55.2188Z" fill="#171717"/>
<path d="M127.516 55.502C127.164 55.556 126.804 55.6102 126.434 55.665L126.353 55.1133C126.721 55.0586 127.081 55.0041 127.431 54.9502L127.516 55.502Z" fill="#171717"/>
<path d="M28.0303 54.8594L27.9854 55.1348L27.9395 55.4102C27.5649 55.3481 27.1935 55.285 26.8252 55.2227L26.8711 54.9482L26.918 54.6729C27.2855 54.7351 27.6565 54.7975 28.0303 54.8594Z" fill="#171717"/>
<path d="M129.69 55.1533C129.338 55.2119 128.973 55.2719 128.597 55.332L128.552 55.0566L128.509 54.7812C128.884 54.7213 129.247 54.6619 129.599 54.6035L129.69 55.1533Z" fill="#171717"/>
<path d="M25.8154 54.4844L25.7207 55.0342C25.3447 54.9691 24.9714 54.9041 24.6025 54.8389L24.6523 54.5635L24.7002 54.2891C25.0683 54.3542 25.4402 54.4194 25.8154 54.4844Z" fill="#171717"/>
<path d="M131.854 54.7793C131.51 54.8414 131.15 54.9048 130.775 54.9697L130.728 54.6953L130.681 54.4199C131.054 54.3552 131.413 54.2914 131.756 54.2295L131.854 54.7793Z" fill="#171717"/>
<path d="M23.6025 54.0928L23.5039 54.6416C23.1269 54.5735 22.7536 54.5055 22.3848 54.4375L22.4854 53.8887C22.8535 53.9566 23.2262 54.0248 23.6025 54.0928Z" fill="#171717"/>
<path d="M133.961 54.0967L134.015 54.3701C133.678 54.4369 133.317 54.5076 132.934 54.5801L132.83 54.0312C133.212 53.9591 133.571 53.8897 133.906 53.8232L133.961 54.0967Z" fill="#171717"/>
<path d="M21.3916 53.6855L21.2881 54.2334C20.9104 54.1623 20.5372 54.0912 20.1689 54.0205L20.2744 53.4727C20.642 53.5432 21.0146 53.6146 21.3916 53.6855Z" fill="#171717"/>
<path d="M136.165 53.9199C135.855 53.9889 135.5 54.0664 135.099 54.1504L134.984 53.6045C135.383 53.521 135.736 53.4445 136.044 53.376L136.165 53.9199Z" fill="#171717"/>
<path d="M19.1807 53.2607L19.0742 53.8086C18.6964 53.7346 18.3238 53.6601 17.957 53.5869L18.0664 53.04C18.4323 53.1131 18.8038 53.187 19.1807 53.2607Z" fill="#171717"/>
<path d="M16.9707 52.8193L16.8594 53.3662C16.483 53.2896 16.1124 53.2141 15.749 53.1387L15.8623 52.5918C16.2249 52.667 16.5951 52.7429 16.9707 52.8193Z" fill="#171717"/>
<path d="M14.7627 52.3613L14.6465 52.9072C14.2736 52.8284 13.908 52.7499 13.5508 52.6729L13.6689 52.1279C14.0255 52.2048 14.3906 52.2826 14.7627 52.3613Z" fill="#171717"/>
<path d="M12.5596 51.8867L12.4395 52.4316C12.0647 52.3493 11.6995 52.268 11.3447 52.1885L11.4668 51.6436C11.821 51.7229 12.1854 51.8045 12.5596 51.8867Z" fill="#171717"/>
<path d="M10.376 51.3975L10.252 51.9414C9.86877 51.8539 9.49871 51.7684 9.14355 51.6855L9.27051 51.1416C9.62487 51.2242 9.99361 51.3101 10.376 51.3975Z" fill="#171717"/>
<path d="M8.17285 50.8838L8.04297 51.4258C7.65646 51.3337 7.29031 51.2459 6.94629 51.1621L7.0791 50.6201C7.42216 50.7036 7.78736 50.792 8.17285 50.8838Z" fill="#171717"/>
<path d="M5.98633 50.3506L5.85156 50.8916C5.44563 50.7904 5.08207 50.6987 4.76367 50.6172L4.90137 50.0762C5.21873 50.1575 5.58142 50.2496 5.98633 50.3506Z" fill="#171717"/>
<path d="M72.3828 46.5732C72.1934 46.5737 72.0029 46.5742 71.8125 46.5742C71.6227 46.5742 71.4331 46.5739 71.2441 46.5732L71.2461 46.0156C71.4344 46.0163 71.6233 46.0166 71.8125 46.0166C72.0025 46.0166 72.1928 46.016 72.3818 46.0156L72.3828 46.5732Z" fill="#171717"/>
<path d="M74.6279 46.2793L74.6318 46.5586C74.2609 46.5627 73.8875 46.5659 73.5127 46.5684L73.5098 46.0107C73.8836 46.0083 74.2561 46.0051 74.626 46.001L74.6279 46.2793Z" fill="#171717"/>
<path d="M70.1211 46.0078L70.1172 46.2871L70.1152 46.5654C69.7406 46.5616 69.3673 46.5561 68.9961 46.5498L69 46.2715L69.0059 45.9922C69.3757 45.9985 69.7478 46.004 70.1211 46.0078Z" fill="#171717"/>
<path d="M76.877 46.5234C76.5008 46.531 76.1225 46.538 75.7422 46.5439L75.7334 45.9863C76.113 45.9804 76.4909 45.9734 76.8662 45.9658L76.877 46.5234Z" fill="#171717"/>
<path d="M67.8916 45.9697L67.8789 46.5273C67.5001 46.5183 67.1232 46.5086 66.748 46.4971L66.7559 46.2178L66.7646 45.9395C67.1384 45.9509 67.5142 45.9608 67.8916 45.9697Z" fill="#171717"/>
<path d="M79.1094 46.4678C78.7417 46.4786 78.3719 46.4898 78 46.499L77.9863 45.9404C78.3572 45.9312 78.7261 45.9219 79.0928 45.9111L79.1094 46.4678Z" fill="#171717"/>
<path d="M65.6475 45.9014L65.627 46.458C65.2544 46.444 64.8835 46.4286 64.5146 46.4121L64.5391 45.8555C64.9066 45.8719 65.2763 45.8874 65.6475 45.9014Z" fill="#171717"/>
<path d="M81.3652 46.3906C80.9928 46.4052 80.6181 46.4187 80.2412 46.4316L80.2217 45.875C80.5979 45.8621 80.972 45.8475 81.3438 45.833L81.3652 46.3906Z" fill="#171717"/>
<path d="M63.4111 45.8018L63.3818 46.3584C63.0065 46.339 62.6332 46.3178 62.2617 46.2959L62.2939 45.7393C62.6642 45.7611 63.037 45.7824 63.4111 45.8018Z" fill="#171717"/>
<path d="M83.6035 46.293C83.2307 46.3112 82.8551 46.3281 82.4775 46.3447L82.4648 46.0664L82.4531 45.7881C82.8297 45.7715 83.2043 45.7536 83.5762 45.7354L83.6035 46.293Z" fill="#171717"/>
<path d="M85.8408 46.1719C85.4729 46.1936 85.1023 46.2142 84.7295 46.2344L84.7139 45.9561L84.6992 45.6777C85.0711 45.6576 85.4406 45.6369 85.8076 45.6152L85.8408 46.1719Z" fill="#171717"/>
<path d="M61.1885 45.6699L61.1514 46.2266C60.7721 46.2015 60.3946 46.175 60.0195 46.1475L60.0605 45.5918C60.4343 45.6192 60.8106 45.645 61.1885 45.6699Z" fill="#171717"/>
<path d="M88.0898 46.0264C87.7175 46.0523 87.3424 46.0773 86.9648 46.1016L86.9287 45.5459C87.3053 45.5217 87.6794 45.4956 88.0508 45.4697L88.0898 46.0264Z" fill="#171717"/>
<path d="M58.9453 45.5059L58.9004 46.0615C58.5289 46.0316 58.1593 46.0001 57.792 45.9678L57.8408 45.4121C58.2069 45.4443 58.5751 45.476 58.9453 45.5059Z" fill="#171717"/>
<path d="M90.3242 45.8594C89.9521 45.8894 89.5768 45.9179 89.1992 45.9463L89.1777 45.668L89.1572 45.3896C89.5338 45.3614 89.9082 45.3326 90.2793 45.3027L90.3242 45.8594Z" fill="#171717"/>
<path d="M56.7158 45.3096L56.6621 45.8643C56.2879 45.8285 55.9156 45.792 55.5459 45.7539L55.5752 45.4766L55.6035 45.1992C55.9718 45.2372 56.3431 45.274 56.7158 45.3096Z" fill="#171717"/>
<path d="M92.5518 45.667C92.1862 45.7006 91.8175 45.7336 91.4463 45.7656L91.3984 45.21C91.7686 45.1781 92.1363 45.1448 92.501 45.1113L92.5518 45.667Z" fill="#171717"/>
<path d="M54.498 45.0811L54.4365 45.6348C54.0592 45.593 53.684 45.55 53.3115 45.5059L53.377 44.9531C53.7482 44.9971 54.1221 45.0394 54.498 45.0811Z" fill="#171717"/>
<path d="M94.7686 45.1709L94.7969 45.4482C94.4279 45.4864 94.0557 45.523 93.6807 45.5596L93.626 45.0049C93.9999 44.9684 94.3713 44.9316 94.7393 44.8936L94.7686 45.1709Z" fill="#171717"/>
<path d="M52.2705 44.8174L52.2002 45.3701C51.8274 45.3231 51.4567 45.2759 51.0889 45.2266L51.1631 44.6729C51.5296 44.722 51.8991 44.7705 52.2705 44.8174Z" fill="#171717"/>
<path d="M97.0312 45.2031C96.6589 45.2462 96.2831 45.2886 95.9043 45.3301L95.8428 44.7754C96.2205 44.734 96.5956 44.6924 96.9668 44.6494L97.0312 45.2031Z" fill="#171717"/>
<path d="M50.0479 44.5195L49.9697 45.0713C49.5994 45.0187 49.2314 44.9649 48.8662 44.9102L48.9482 44.3594C49.312 44.4139 49.679 44.4672 50.0479 44.5195Z" fill="#171717"/>
<path d="M99.2559 44.9316C98.887 44.979 98.5144 45.0255 98.1387 45.0713L98.0713 44.5176C98.4457 44.4719 98.817 44.4261 99.1846 44.3789L99.2559 44.9316Z" fill="#171717"/>
<path d="M101.473 44.6328C101.109 44.6842 100.742 44.7352 100.372 44.7852L100.334 44.5088L100.297 44.2324C100.666 44.1826 101.032 44.1323 101.395 44.0811L101.473 44.6328Z" fill="#171717"/>
<path d="M47.8379 44.1875L47.751 44.7383C47.3782 44.6793 47.0079 44.6197 46.6406 44.5586L46.7324 44.0078C47.0982 44.0687 47.4667 44.1288 47.8379 44.1875Z" fill="#171717"/>
<path d="M103.654 44.0273L103.696 44.3027C103.334 44.3591 102.967 44.4148 102.597 44.4697L102.515 43.918C102.884 43.8632 103.25 43.8081 103.611 43.752L103.654 44.0273Z" fill="#171717"/>
<path d="M45.6387 43.8223L45.543 44.3711C45.1681 44.3056 44.7957 44.2394 44.4268 44.1719L44.5264 43.623C44.8939 43.6904 45.2652 43.757 45.6387 43.8223Z" fill="#171717"/>
<path d="M105.918 43.9424C105.554 44.0042 105.186 44.0655 104.813 44.126L104.725 43.5752C105.095 43.515 105.462 43.4541 105.824 43.3926L105.918 43.9424Z" fill="#171717"/>
<path d="M43.4326 43.418L43.3809 43.6914L43.3281 43.9658C42.9569 43.8947 42.5886 43.8221 42.2236 43.749L42.2773 43.4756L42.333 43.2021C42.6964 43.275 43.063 43.3471 43.4326 43.418Z" fill="#171717"/>
<path d="M108.132 43.5498C107.768 43.6172 107.399 43.6838 107.025 43.75L106.928 43.2012C107.3 43.1352 107.667 43.0681 108.03 43.001L108.132 43.5498Z" fill="#171717"/>
<path d="M41.2344 42.9775L41.1201 43.5234C40.7534 43.4467 40.3895 43.3686 40.0293 43.29L40.1484 42.7451C40.5071 42.8233 40.8692 42.9012 41.2344 42.9775Z" fill="#171717"/>
<path d="M110.338 43.124C109.974 43.1972 109.605 43.2697 109.231 43.3418L109.126 42.7939C109.498 42.7221 109.865 42.65 110.228 42.5771L110.338 43.124Z" fill="#171717"/>
<path d="M39.0479 42.5L38.9854 42.7725L38.9238 43.0449C38.5588 42.962 38.1969 42.8775 37.8389 42.793L37.9678 42.25C38.3242 42.3342 38.6845 42.4175 39.0479 42.5Z" fill="#171717"/>
<path d="M112.536 42.6621C112.174 42.7412 111.807 42.8202 111.434 42.8984L111.319 42.3525C111.691 42.2747 112.057 42.1959 112.417 42.1172L112.536 42.6621Z" fill="#171717"/>
<path d="M36.8711 41.9863L36.8037 42.2568L36.7373 42.5273C36.372 42.4376 36.01 42.3481 35.6523 42.2568L35.7217 41.9863L35.79 41.7158C36.1463 41.8067 36.5072 41.897 36.8711 41.9863Z" fill="#171717"/>
<path d="M114.725 42.1641C114.366 42.249 114.001 42.3336 113.63 42.418L113.507 41.875C113.876 41.791 114.24 41.7066 114.597 41.6221L114.725 42.1641Z" fill="#171717"/>
<path d="M34.7051 41.4336L34.5625 41.9727C34.1973 41.876 33.8354 41.7786 33.4785 41.6807L33.5518 41.4121L33.626 41.1426C33.9813 41.2401 34.3415 41.3373 34.7051 41.4336Z" fill="#171717"/>
<path d="M116.9 41.6279C116.547 41.7186 116.186 41.8089 115.819 41.8994L115.753 41.6289L115.686 41.3584C116.051 41.2683 116.41 41.1782 116.762 41.0879L116.9 41.6279Z" fill="#171717"/>
<path d="M32.5488 40.8418L32.4727 41.1094L32.3955 41.3779C32.0311 41.2742 31.6707 41.1702 31.3154 41.0654L31.4736 40.5303C31.8274 40.6346 32.186 40.7385 32.5488 40.8418Z" fill="#171717"/>
<path d="M119.001 40.7773L119.075 41.0459C118.724 41.1437 118.364 41.2417 117.997 41.3398L117.926 41.0713L117.854 40.8018C118.219 40.7041 118.576 40.606 118.926 40.5088L119.001 40.7773Z" fill="#171717"/>
<path d="M30.4033 40.209L30.3223 40.4756L30.2402 40.7432C29.8774 40.6324 29.5197 40.5206 29.167 40.4092L29.335 39.877C29.686 39.9879 30.0422 40.0987 30.4033 40.209Z" fill="#171717"/>
<path d="M121.24 40.418C120.889 40.5242 120.527 40.6317 120.156 40.7393L120.002 40.2031C120.371 40.0962 120.73 39.9904 121.079 39.8848L121.24 40.418Z" fill="#171717"/>
<path d="M123.286 39.4805L123.373 39.7451C123.031 39.8577 122.677 39.9727 122.312 40.0879L122.144 39.5557C122.507 39.4412 122.858 39.3277 123.198 39.2158L123.286 39.4805Z" fill="#171717"/>
<path d="M28.2695 39.5352L28.0967 40.0654C27.7364 39.9476 27.3813 39.829 27.0322 39.7109L27.2109 39.1826C27.5582 39.3 27.9111 39.418 28.2695 39.5352Z" fill="#171717"/>
<path d="M125.509 39.0098C125.17 39.1321 124.814 39.2572 124.443 39.3848L124.354 39.1211L124.262 38.8574C124.629 38.7308 124.982 38.6067 125.318 38.4854L125.509 39.0098Z" fill="#171717"/>
<path d="M26.1494 38.8174L25.9648 39.3447C25.6087 39.2202 25.2586 39.0949 24.915 38.9707L25.0098 38.709L25.1055 38.4463C25.4471 38.5698 25.7952 38.6935 26.1494 38.8174Z" fill="#171717"/>
<path d="M127.61 38.2129C127.285 38.3429 126.936 38.4785 126.564 38.6191L126.367 38.0986C126.735 37.9592 127.081 37.8241 127.403 37.6953L127.61 38.2129Z" fill="#171717"/>
<path d="M24.0459 38.0566L23.9473 38.3184L23.8496 38.5791C23.4943 38.4462 23.1464 38.3133 22.8057 38.1816L22.9053 37.9219L23.0059 37.6621C23.3448 37.7931 23.6923 37.9244 24.0459 38.0566Z" fill="#171717"/>
<path d="M129.69 37.3311C129.39 37.4672 129.043 37.6193 128.651 37.7852L128.543 37.5283L128.434 37.2715C128.822 37.1074 129.164 36.9576 129.461 36.8232L129.69 37.3311Z" fill="#171717"/>
<path d="M21.9639 37.252L21.7578 37.7705C21.4002 37.6276 21.0508 37.4853 20.7109 37.3447L20.8174 37.0869L20.9238 36.8301C21.2615 36.9697 21.6085 37.1099 21.9639 37.252Z" fill="#171717"/>
<path d="M19.8994 36.3984L19.7891 36.6553L19.6797 36.9111C19.3266 36.7601 18.9838 36.6107 18.6523 36.4639L18.8789 35.9541C19.2082 36.1 19.5485 36.2483 19.8994 36.3984Z" fill="#171717"/>
<path d="M17.8525 35.4922L17.6201 35.998C17.2653 35.8352 16.9246 35.6758 16.5986 35.5205L16.8379 35.0176C17.1615 35.1717 17.5001 35.3304 17.8525 35.4922Z" fill="#171717"/>
<path d="M74.5869 34.6436L74.585 34.9219L74.584 35.2012C74.216 35.1995 73.8464 35.1954 73.4756 35.1885L73.4805 34.9092L73.4863 34.6309C73.8545 34.6377 74.2215 34.6419 74.5869 34.6436Z" fill="#171717"/>
<path d="M76.8027 34.9023L76.8096 35.1807C76.4418 35.1892 76.072 35.1957 75.7012 35.1992L75.6963 34.6406C76.0645 34.6372 76.4317 34.6315 76.7969 34.623L76.8027 34.9023Z" fill="#171717"/>
<path d="M71.8232 34.582C72.0089 34.5894 72.1949 34.5965 72.3799 34.6025L72.3701 34.8809L72.3613 35.1592C72.1752 35.1531 71.9885 35.1471 71.8018 35.1396C71.6128 35.1321 71.4239 35.1243 71.2363 35.1162L71.249 34.8379L71.2607 34.5586C71.4475 34.5666 71.6351 34.5745 71.8232 34.582Z" fill="#171717"/>
<path d="M79.0352 35.0977C78.6672 35.1164 78.2971 35.1337 77.9258 35.1475L77.9043 34.5889C78.2732 34.5752 78.6412 34.5596 79.0068 34.541L79.0352 35.0977Z" fill="#171717"/>
<path d="M70.1475 34.5068L70.1328 34.7861L70.1191 35.0645C69.7494 35.0461 69.3819 35.0263 69.0176 35.0059L69.0498 34.4492C69.4128 34.4696 69.779 34.4886 70.1475 34.5068Z" fill="#171717"/>
<path d="M81.2568 34.9551C80.8889 34.9839 80.519 35.0102 80.1475 35.0342L80.1113 34.4775C80.4805 34.4537 80.8482 34.4271 81.2139 34.3984L81.2568 34.9551Z" fill="#171717"/>
<path d="M15.833 34.5293L15.5859 35.0293C15.2298 34.853 14.8946 34.6832 14.5811 34.5215L14.8369 34.0254C15.1477 34.1857 15.4798 34.3544 15.833 34.5293Z" fill="#171717"/>
<path d="M67.96 34.3848L67.9248 34.9414C67.548 34.9177 67.1736 34.8922 66.8027 34.8662L66.8428 34.3096C67.2122 34.3355 67.5847 34.3611 67.96 34.3848Z" fill="#171717"/>
<path d="M83.4736 34.751C83.1058 34.7898 82.7359 34.8262 82.3643 34.8604L82.3125 34.3047C82.6816 34.2708 83.0497 34.2348 83.415 34.1963L83.4736 34.751Z" fill="#171717"/>
<path d="M65.7422 34.2285L65.6992 34.7852C65.3344 34.757 64.9723 34.7276 64.6133 34.6973L64.6602 34.1406C65.0179 34.1709 65.3786 34.2004 65.7422 34.2285Z" fill="#171717"/>
<path d="M85.6465 34.2109L85.6836 34.4883C85.3164 34.5369 84.9465 34.5828 84.5752 34.627L84.542 34.3506L84.5098 34.0732C84.8785 34.0294 85.2457 33.9839 85.6104 33.9355L85.6465 34.2109Z" fill="#171717"/>
<path d="M63.543 34.042L63.4912 34.5977C63.1203 34.5634 62.7523 34.5287 62.3877 34.4922L62.4434 33.9365C62.8065 33.9729 63.1735 34.0079 63.543 34.042Z" fill="#171717"/>
<path d="M61.3623 33.8242L61.3027 34.3789C60.9268 34.3383 60.5536 34.2959 60.1846 34.2529L60.249 33.6992C60.6165 33.742 60.9879 33.7838 61.3623 33.8242Z" fill="#171717"/>
<path d="M87.8418 33.8916L87.8848 34.167C87.5189 34.2253 87.1507 34.2819 86.7803 34.3359L86.6992 33.7842C87.0675 33.7305 87.4341 33.6742 87.7979 33.6162L87.8418 33.8916Z" fill="#171717"/>
<path d="M59.1533 33.5674L59.1191 33.8438L59.084 34.1201C58.7197 34.0746 58.3585 34.0283 58.001 33.9805L58.0752 33.4277C58.4311 33.4753 58.7906 33.522 59.1533 33.5674Z" fill="#171717"/>
<path d="M13.8516 33.5068L13.5869 33.9971C13.2177 33.7979 12.8901 33.6154 12.6045 33.4531L12.8799 32.9688C13.162 33.129 13.486 33.3096 13.8516 33.5068Z" fill="#171717"/>
<path d="M90.0771 33.7881C89.7131 33.8558 89.3465 33.9216 88.9775 33.9854L88.8818 33.4355C89.2487 33.3722 89.6135 33.3066 89.9756 33.2393L90.0771 33.7881Z" fill="#171717"/>
<path d="M56.9648 33.2734L56.9258 33.5498L56.8857 33.8262C56.5179 33.7736 56.1534 33.7199 55.793 33.665L55.877 33.1133C56.2358 33.1679 56.5987 33.2211 56.9648 33.2734Z" fill="#171717"/>
<path d="M92.2021 33.0801L92.2598 33.3525C91.8976 33.4296 91.5325 33.5049 91.165 33.5781L91.0557 33.0312C91.4208 32.9584 91.7836 32.8842 92.1436 32.8076L92.2021 33.0801Z" fill="#171717"/>
<path d="M54.793 32.9434L54.749 33.2188L54.7041 33.4941C54.3321 33.4339 53.9636 33.3722 53.5996 33.3096L53.6943 32.7598C54.0564 32.8221 54.4228 32.8834 54.793 32.9434Z" fill="#171717"/>
<path d="M52.6201 32.5693L52.5195 33.1182C52.1495 33.0507 51.7834 32.982 51.4219 32.9121L51.5273 32.3643C51.8871 32.4338 52.2519 32.5021 52.6201 32.5693Z" fill="#171717"/>
<path d="M94.4297 32.8623C94.0696 32.9485 93.7066 33.0335 93.3408 33.1162L93.2178 32.5713C93.5811 32.4892 93.9422 32.4059 94.2998 32.3203L94.4297 32.8623Z" fill="#171717"/>
<path d="M50.4453 32.1484L50.334 32.6953C49.9705 32.621 49.6105 32.5454 49.2559 32.4688L49.375 31.9238C49.7273 32 50.0842 32.0746 50.4453 32.1484Z" fill="#171717"/>
<path d="M96.5156 32.0479L96.5869 32.3174C96.2292 32.4125 95.8679 32.5057 95.5039 32.5977L95.3672 32.0576C95.729 31.9662 96.0878 31.8729 96.4434 31.7783L96.5156 32.0479Z" fill="#171717"/>
<path d="M48.2871 31.6816L48.1631 32.2256C47.8036 32.1435 47.4488 32.0599 47.0986 31.9756L47.2285 31.4336C47.5766 31.5174 47.9297 31.6 48.2871 31.6816Z" fill="#171717"/>
<path d="M98.7295 31.7188C98.3745 31.8227 98.0154 31.9253 97.6533 32.0264L97.5781 31.7578L97.5039 31.4893C97.8635 31.3888 98.2196 31.2868 98.5723 31.1836L98.7295 31.7188Z" fill="#171717"/>
<path d="M46.1445 31.165L46.0762 31.4355L46.0068 31.7061C45.6469 31.6145 45.2912 31.5214 44.9414 31.4277L45.0146 31.1582L45.0859 30.8896C45.4335 30.9828 45.7868 31.0741 46.1445 31.165Z" fill="#171717"/>
<path d="M100.855 31.0674C100.504 31.1795 100.15 31.2916 99.791 31.4014L99.6279 30.8682C99.9842 30.7591 100.337 30.6485 100.686 30.5371L100.855 31.0674Z" fill="#171717"/>
<path d="M44.0166 30.5947L43.8652 31.1318C43.5061 31.0304 43.1518 30.9278 42.8037 30.8242L42.9629 30.2891C43.3084 30.3918 43.6599 30.494 44.0166 30.5947Z" fill="#171717"/>
<path d="M102.965 30.3662C102.619 30.4862 102.268 30.6046 101.913 30.7227L101.736 30.1943C102.089 30.0769 102.437 29.9581 102.781 29.8389L102.965 30.3662Z" fill="#171717"/>
<path d="M41.9043 29.9658L41.7383 30.499C41.3815 30.3872 41.0302 30.2739 40.6855 30.1602L40.7725 29.8955L40.8604 29.6309C41.2022 29.7437 41.5504 29.8549 41.9043 29.9658Z" fill="#171717"/>
<path d="M104.955 29.3516L105.053 29.6133C104.712 29.7407 104.367 29.868 104.017 29.9941L103.827 29.4688C104.175 29.3433 104.519 29.2175 104.857 29.0908L104.955 29.3516Z" fill="#171717"/>
<path d="M39.8115 29.2754L39.6289 29.8018C39.2763 29.6792 38.9302 29.5559 38.5908 29.4316L38.7822 28.9072C39.1187 29.0304 39.4619 29.1538 39.8115 29.2754Z" fill="#171717"/>
<path d="M107.133 28.8057C106.794 28.9419 106.45 29.0781 106.1 29.2139L105.998 28.9541L105.897 28.6943C106.245 28.5593 106.588 28.4236 106.925 28.2881L107.133 28.8057Z" fill="#171717"/>
<path d="M37.7432 28.5166L37.6426 28.7773L37.542 29.0371C37.1946 28.903 36.8544 28.7682 36.5215 28.6328L36.626 28.374L36.7314 28.1162C37.0613 28.2504 37.3988 28.3836 37.7432 28.5166Z" fill="#171717"/>
<path d="M109.078 27.6943L109.188 27.9502C108.852 28.0954 108.507 28.241 108.157 28.3867L108.051 28.1289L107.943 27.8711C108.291 27.7263 108.633 27.5818 108.968 27.4375L109.078 27.6943Z" fill="#171717"/>
<path d="M35.7051 27.6875L35.4854 28.2002C35.1386 28.0513 34.7998 27.9016 34.4697 27.752L34.5859 27.498L34.7002 27.2441C35.0268 27.3922 35.3619 27.5401 35.7051 27.6875Z" fill="#171717"/>
<path d="M111.212 27.0479C110.884 27.1987 110.549 27.3511 110.206 27.5039L109.979 26.9941C110.32 26.8423 110.654 26.691 110.979 26.541L111.212 27.0479Z" fill="#171717"/>
<path d="M33.71 26.7822L33.4688 27.2852C33.1239 27.12 32.7884 26.955 32.4629 26.79L32.5889 26.541L32.7148 26.293C33.0367 26.4561 33.3688 26.6189 33.71 26.7822Z" fill="#171717"/>
<path d="M113.229 26.0869C112.905 26.2468 112.57 26.4092 112.226 26.5732L111.985 26.0693C112.328 25.9063 112.661 25.7449 112.983 25.5859L113.229 26.0869Z" fill="#171717"/>
<path d="M31.7412 25.7842L31.4775 26.2754C31.1443 26.0964 30.8213 25.9177 30.5098 25.7402L30.7861 25.2559C31.0936 25.431 31.4121 25.6074 31.7412 25.7842Z" fill="#171717"/>
<path d="M115.213 25.0771C114.897 25.2436 114.567 25.4137 114.225 25.5879L113.973 25.0918C114.312 24.9189 114.639 24.7482 114.953 24.583L115.213 25.0771Z" fill="#171717"/>
<path d="M28.9033 24.1143C29.2015 24.307 29.5131 24.5024 29.8379 24.6992L29.5488 25.1758C29.2196 24.9763 28.9032 24.7786 28.6006 24.583L28.9033 24.1143Z" fill="#171717"/>
<path d="M117.169 24.0107C116.864 24.1832 116.538 24.364 116.193 24.5518L115.927 24.0615C116.268 23.8753 116.591 23.6954 116.894 23.5244L117.169 24.0107Z" fill="#171717"/>
<path d="M27.0986 22.8643C27.3791 23.0728 27.6765 23.2869 27.9902 23.5039L27.6729 23.9619C27.354 23.7413 27.0512 23.5248 26.7656 23.3125L26.9326 23.0889L27.0986 22.8643Z" fill="#171717"/>
<path d="M118.937 22.6475L119.082 22.8857C118.805 23.0557 118.488 23.2468 118.134 23.4551L117.992 23.2148L117.851 22.9736C118.202 22.7671 118.517 22.5783 118.791 22.4102L118.937 22.6475Z" fill="#171717"/>
<path d="M25.3994 21.498C25.6547 21.7215 25.933 21.9549 26.2334 22.1963L25.8838 22.6309C25.5773 22.3846 25.2934 22.1465 25.0322 21.918L25.3994 21.498Z" fill="#171717"/>
<path d="M74.5381 21.792L74.54 22.0703C74.1785 22.0738 73.8139 22.0737 73.4463 22.0703L73.4492 21.792L73.4512 21.5127C73.8153 21.5161 74.177 21.5161 74.5352 21.5127L74.5381 21.792Z" fill="#171717"/>
<path d="M71.8232 21.4746C72.0062 21.4814 72.1886 21.4871 72.3701 21.4922L72.3545 22.0498C72.1713 22.0447 71.9873 22.0391 71.8027 22.0322C71.6133 22.0252 71.424 22.0173 71.2363 22.0088L71.2617 21.4512C71.4479 21.4596 71.6354 21.4676 71.8232 21.4746Z" fill="#171717"/>
<path d="M76.7256 22.0078C76.3637 22.0253 75.9982 22.0383 75.6299 22.0488L75.6133 21.4922C75.978 21.4817 76.34 21.4675 76.6982 21.4502L76.7256 22.0078Z" fill="#171717"/>
<path d="M70.1543 21.3926L70.1201 21.9492C69.7452 21.9264 69.3738 21.9013 69.0059 21.873L69.0479 21.3164C69.4131 21.3445 69.7821 21.3699 70.1543 21.3926Z" fill="#171717"/>
<path d="M78.9062 21.8584C78.5444 21.8903 78.1784 21.9193 77.8096 21.9443L77.7725 21.3877C78.1375 21.3629 78.4994 21.3343 78.8574 21.3027L78.9062 21.8584Z" fill="#171717"/>
<path d="M67.9434 21.2227L67.918 21.5L67.8916 21.7783C67.5169 21.7433 67.1456 21.7055 66.7783 21.665L66.8096 21.3877L66.8398 21.1104C67.204 21.1505 67.5718 21.188 67.9434 21.2227Z" fill="#171717"/>
<path d="M81.0781 21.623C80.7192 21.6695 80.3557 21.7132 79.9893 21.7529L79.9297 21.1982C80.2921 21.1589 80.6509 21.1162 81.0059 21.0703L81.0781 21.623Z" fill="#171717"/>
<path d="M65.7412 20.9805L65.6709 21.5332C65.2964 21.4855 64.9251 21.435 64.5586 21.3818L64.5996 21.1055L64.6387 20.8301C65.0019 20.8828 65.37 20.9332 65.7412 20.9805Z" fill="#171717"/>
<path d="M83.2363 21.2979C82.8821 21.3587 82.5234 21.4172 82.1611 21.4717L82.0781 20.9199C82.4365 20.866 82.7912 20.8092 83.1416 20.749L83.2363 21.2979Z" fill="#171717"/>
<path d="M63.5498 20.6621L63.5059 20.9375L63.46 21.2129C63.0862 21.1519 62.7167 21.0879 62.3516 21.0215L62.4512 20.4727C62.813 20.5384 63.1794 20.6017 63.5498 20.6621Z" fill="#171717"/>
<path d="M23.8311 19.9785C24.0444 20.2105 24.2962 20.4702 24.5889 20.7529L24.2012 21.1543C23.9005 20.8639 23.6407 20.5955 23.4199 20.3555L23.626 20.167L23.8311 19.9785Z" fill="#171717"/>
<path d="M85.3848 20.8818C85.0331 20.9578 84.6768 21.0307 84.3164 21.1006L84.2637 20.8271L84.21 20.5527C84.5666 20.4836 84.9196 20.4121 85.2676 20.3369L85.3848 20.8818Z" fill="#171717"/>
<path d="M61.3682 20.2656L61.2578 20.8125C60.8872 20.7381 60.5206 20.6607 60.1592 20.5811L60.2803 20.0361C60.6383 20.115 61.0009 20.1919 61.3682 20.2656Z" fill="#171717"/>
<path d="M87.4443 20.1035L87.5146 20.373C87.1649 20.4647 86.8095 20.5539 86.4502 20.6396L86.3203 20.0967C86.6758 20.0118 87.0271 19.9236 87.373 19.833L87.4443 20.1035Z" fill="#171717"/>
<path d="M59.2002 19.7881L59.0693 20.3301C58.7044 20.2423 58.3444 20.1513 57.9893 20.0586L58.1299 19.5195C58.4817 19.6114 58.8387 19.7012 59.2002 19.7881Z" fill="#171717"/>
<path d="M89.5303 19.5078L89.6133 19.7744C89.27 19.8807 88.9211 19.9839 88.5674 20.085L88.4131 19.5488C88.7631 19.4489 89.1086 19.3464 89.4482 19.2412L89.5303 19.5078Z" fill="#171717"/>
<path d="M57.0557 19.2275L56.9033 19.7637C56.5411 19.6614 56.1836 19.5572 55.832 19.4502L55.9951 18.916C56.3432 19.0219 56.697 19.1263 57.0557 19.2275Z" fill="#171717"/>
<path d="M91.6904 19.0791C91.3522 19.2007 91.0081 19.3205 90.6582 19.4375L90.5693 19.1729L90.4814 18.9082C90.8273 18.7926 91.1677 18.6749 91.502 18.5547L91.6904 19.0791Z" fill="#171717"/>
<path d="M54.9395 18.583L54.7666 19.1133C54.4062 18.9955 54.0517 18.875 53.7031 18.7529L53.8867 18.2275C54.2317 18.3483 54.5828 18.4664 54.9395 18.583Z" fill="#171717"/>
<path d="M93.7295 18.2939C93.3972 18.4308 93.0582 18.5661 92.7129 18.6992L92.5117 18.1777C92.8531 18.0462 93.1882 17.9126 93.5166 17.7773L93.7295 18.2939Z" fill="#171717"/>
<path d="M52.8467 17.8506L52.749 18.1113L52.6514 18.373C52.2986 18.241 51.9523 18.1064 51.6123 17.9707L51.8193 17.4531C52.1554 17.5873 52.4979 17.72 52.8467 17.8506Z" fill="#171717"/>
<path d="M95.7354 17.4121C95.4106 17.5639 95.0779 17.715 94.7383 17.8643L94.5137 17.3535C94.8493 17.2061 95.1782 17.0572 95.499 16.9072L95.7354 17.4121Z" fill="#171717"/>
<path d="M50.79 17.0293L50.5723 17.543C50.2229 17.3944 49.8808 17.2432 49.5459 17.0918L49.7744 16.584C50.1055 16.7337 50.4445 16.8824 50.79 17.0293Z" fill="#171717"/>
<path d="M97.6934 16.4385C97.3779 16.6047 97.0535 16.7712 96.7207 16.9365L96.4727 16.4375C96.8014 16.2742 97.122 16.1105 97.4336 15.9463L97.6934 16.4385Z" fill="#171717"/>
<path d="M48.7734 16.1172L48.6523 16.3682L48.5322 16.6201C48.1905 16.456 47.8557 16.2908 47.5303 16.125L47.7842 15.627C48.1058 15.7908 48.4357 15.955 48.7734 16.1172Z" fill="#171717"/>
<path d="M99.46 15.1328L99.6025 15.373C99.2971 15.5537 98.9808 15.7356 98.6543 15.918L98.5186 15.6738L98.3828 15.4307C98.705 15.2507 99.017 15.0708 99.3184 14.8926L99.46 15.1328Z" fill="#171717"/>
<path d="M46.8057 15.1133L46.6729 15.3594L46.54 15.6045C46.2035 15.4227 45.8761 15.2404 45.5586 15.0586L45.6973 14.8164L45.8359 14.5752C46.1494 14.7547 46.4733 14.9337 46.8057 15.1133Z" fill="#171717"/>
<path d="M101.46 14.209C101.166 14.4038 100.859 14.6018 100.538 14.8027L100.242 14.3301C100.559 14.1319 100.862 13.9363 101.151 13.7441L101.46 14.209Z" fill="#171717"/>
<path d="M44.8818 14.0127L44.5928 14.4893C44.2646 14.2901 43.9471 14.092 43.6416 13.8955L43.9434 13.4258C44.2448 13.6197 44.5578 13.8161 44.8818 14.0127Z" fill="#171717"/>
<path d="M103.083 12.7246L103.25 12.9482C102.975 13.1541 102.68 13.369 102.366 13.5898L102.205 13.3623L102.045 13.1338C102.354 12.9159 102.646 12.7039 102.917 12.501L103.083 12.7246Z" fill="#171717"/>
<path d="M42.1201 12.1816C42.4066 12.3891 42.7077 12.6007 43.0225 12.8154L42.708 13.2764C42.3888 13.0586 42.0836 12.8434 41.793 12.6328L41.9561 12.4072L42.1201 12.1816Z" fill="#171717"/>
<path d="M104.78 11.3691L104.961 11.5811C104.717 11.7904 104.436 12.0244 104.119 12.2773L103.771 11.8408C104.083 11.5922 104.359 11.3634 104.599 11.1582L104.78 11.3691Z" fill="#171717"/>
<path d="M40.3652 10.8271C40.6342 11.0485 40.924 11.28 41.2334 11.5186L41.0625 11.7393L40.8926 11.96C40.5785 11.7178 40.2841 11.4838 40.0107 11.2588L40.1885 11.043L40.3652 10.8271Z" fill="#171717"/>
<path d="M74.6836 11.4336C74.3064 11.4573 73.9216 11.4718 73.5303 11.4766L73.5273 11.1982L73.5234 10.9189C73.9055 10.9143 74.2814 10.9 74.6494 10.877L74.6836 11.4336Z" fill="#171717"/>
<path d="M71.8301 10.877C72.0207 10.8885 72.21 10.8984 72.3975 10.9053L72.3877 11.1836L72.377 11.4629C72.1849 11.4558 71.9911 11.4464 71.7959 11.4346C71.5974 11.4225 71.4007 11.4085 71.2061 11.3936L71.249 10.8369C71.4406 10.8517 71.6346 10.8651 71.8301 10.877Z" fill="#171717"/>
<path d="M76.9756 11.1689C76.603 11.2322 76.2218 11.2862 75.833 11.3311L75.8018 11.0547L75.7695 10.7773C76.1482 10.7337 76.5191 10.6808 76.8818 10.6191L76.9756 11.1689Z" fill="#171717"/>
<path d="M68.9629 10.583C69.3345 10.6377 69.7149 10.6863 70.1035 10.7295L70.0732 11.0068L70.042 11.2842C69.6469 11.2403 69.26 11.1905 68.8818 11.1348L68.9229 10.8584L68.9629 10.583Z" fill="#171717"/>
<path d="M79.2305 10.6572C78.866 10.7613 78.4916 10.8575 78.1084 10.9443L77.9854 10.4004C78.3583 10.3159 78.7226 10.2224 79.0771 10.1211L79.2305 10.6572Z" fill="#171717"/>
<path d="M66.7031 10.1621C67.0686 10.2452 67.4444 10.323 67.8291 10.3945L67.7783 10.668L67.7266 10.9424C67.3348 10.8695 66.9526 10.7907 66.5801 10.7061L66.7031 10.1621Z" fill="#171717"/>
<path d="M38.7178 9.36914C38.9518 9.59319 39.2225 9.84455 39.5312 10.1172L39.3477 10.3262L39.1621 10.5352C38.8476 10.2575 38.5703 10.0015 38.3311 9.77246L38.5244 9.57129L38.7178 9.36914Z" fill="#171717"/>
<path d="M64.4883 9.55957C64.8439 9.67327 65.2112 9.78115 65.5889 9.88379L65.4434 10.4219C65.0577 10.3171 64.682 10.2071 64.3184 10.0908L64.4883 9.55957Z" fill="#171717"/>
<path d="M81.3057 9.64258L81.4111 9.90137C81.0625 10.0446 80.7022 10.1811 80.332 10.3096L80.2412 10.0459L80.1494 9.78223C80.5097 9.65723 80.8599 9.52411 81.1992 9.38477L81.3057 9.64258Z" fill="#171717"/>
<path d="M62.3418 8.76074C62.6838 8.90706 63.0388 9.04906 63.4062 9.18555L63.3086 9.44727L63.2119 9.70898C62.8361 9.56937 62.4733 9.42328 62.123 9.27344L62.3418 8.76074Z" fill="#171717"/>
<path d="M83.498 8.9043C83.1681 9.08492 82.8252 9.26191 82.4697 9.43164L82.2295 8.92773C82.5753 8.76261 82.9094 8.59177 83.2305 8.41602L83.498 8.9043Z" fill="#171717"/>
<path d="M60.2852 7.75293C60.6078 7.93279 60.9454 8.10964 61.2979 8.28223L61.1748 8.53223L61.0527 8.7832C60.6912 8.60616 60.344 8.42397 60.0127 8.23926L60.1494 7.99609L60.2852 7.75293Z" fill="#171717"/>
<path d="M85.3008 7.45801L85.46 7.68652C85.1545 7.90008 84.8327 8.11321 84.4961 8.32227L84.2021 7.84766C84.5299 7.6441 84.8431 7.43747 85.1406 7.22949L85.3008 7.45801Z" fill="#171717"/>
<path d="M58.3535 6.5293C58.6506 6.74252 58.9665 6.95594 59.2998 7.16699L59.001 7.63867C58.6584 7.42177 58.334 7.20184 58.0283 6.98242L58.1914 6.75586L58.3535 6.5293Z" fill="#171717"/>
<path d="M87.2812 6.25977C87.0055 6.50103 86.7084 6.74917 86.3906 6.99805L86.0469 6.55859C86.3563 6.31622 86.6456 6.0757 86.9141 5.84082L87.2812 6.25977Z" fill="#171717"/>
<path d="M56.5811 5.08301C56.8446 5.32763 57.1319 5.57917 57.4434 5.83301L57.2676 6.0498L57.0908 6.26562C56.7699 6.00412 56.4742 5.74467 56.2021 5.49219L56.3916 5.28809L56.5811 5.08301Z" fill="#171717"/>
<path d="M88.9316 4.64453C88.7011 4.8984 88.4335 5.17852 88.1299 5.47559L87.7393 5.07617C88.0344 4.78735 88.2941 4.51567 88.5176 4.26953L88.9316 4.64453Z" fill="#171717"/>
<path d="M55.0234 3.41895C55.234 3.68114 55.4836 3.97145 55.7734 4.28027L55.5703 4.47168L55.3662 4.66211C55.0662 4.34245 54.808 4.04138 54.5889 3.76855L55.0234 3.41895Z" fill="#171717"/>
<path fill-rule="evenodd" clip-rule="evenodd" d="M70 0C108.66 0 140 31.3401 140 70C140 108.66 108.66 140 70 140C31.3401 140 0 108.66 0 70C0 31.3401 31.3401 0 70 0ZM70 0.557617C64.5851 0.557617 59.3151 1.17812 54.2568 2.35059C54.2861 2.39742 54.3187 2.44984 54.3555 2.50586L54.1221 2.6582L53.8887 2.81152C53.8026 2.68018 53.7353 2.57028 53.6855 2.48633C48.1026 3.83058 42.7827 5.84898 37.8164 8.45117C37.8531 8.49125 37.8929 8.53737 37.9385 8.58594L37.7354 8.77637L37.5322 8.96777C37.4402 8.86965 37.3657 8.78579 37.3076 8.7207C32.0904 11.5099 27.2705 14.9452 22.9561 18.9209C23.0005 18.9827 23.0566 19.0598 23.126 19.1494L22.6846 19.4912C22.6307 19.4216 22.5841 19.3586 22.5439 19.3037C18.4258 23.1603 14.7779 27.5134 11.6953 32.2666C11.757 32.3051 11.8311 32.351 11.917 32.4033L11.627 32.8799C11.5362 32.8246 11.4582 32.7758 11.3936 32.7354C8.06157 37.9647 5.4113 43.6702 3.56543 49.7266C3.63408 49.7449 3.71525 49.7672 3.80859 49.792L3.73633 50.0615L3.66504 50.3311C3.56353 50.3041 3.47588 50.2802 3.40332 50.2607C1.57672 56.4328 0.58609 62.9634 0.55957 69.7217H0.832031V70.2793H0.55957C0.582182 76.019 1.30152 81.5947 2.63672 86.9258C2.7049 86.902 2.78499 86.873 2.87695 86.8418L3.05664 87.3701C2.94402 87.4084 2.84934 87.4411 2.77344 87.4678C4.26652 93.2304 6.48074 98.7027 9.31445 103.782C9.38104 103.748 9.4611 103.706 9.55469 103.659L9.80469 104.158C9.72218 104.2 9.65067 104.236 9.58984 104.268C12.3667 109.152 15.7183 113.668 19.5537 117.721C19.6217 117.671 19.7068 117.608 19.8086 117.536L20.1318 117.991C20.0597 118.042 19.9966 118.088 19.9424 118.128C24.232 122.588 29.1122 126.477 34.457 129.668C34.5223 129.61 34.6069 129.533 34.7119 129.442L35.0771 129.864C35.0351 129.901 34.9964 129.935 34.9609 129.966C39.9186 132.869 45.2689 135.175 50.9121 136.785C50.9621 136.71 51.0281 136.612 51.1113 136.497L51.5635 136.824C51.5328 136.867 51.5051 136.907 51.4795 136.943C57.3757 138.571 63.5861 139.442 70 139.442C75.2186 139.442 80.3027 138.865 85.1924 137.773C85.1663 137.729 85.1367 137.681 85.1045 137.629L85.5801 137.336C85.6564 137.46 85.7164 137.564 85.7617 137.645C91.7331 136.259 97.4085 134.102 102.679 131.286C102.643 131.251 102.604 131.212 102.561 131.171L102.753 130.969L102.946 130.768C103.048 130.865 103.13 130.946 103.193 131.009C108.642 128.038 113.649 124.358 118.09 120.094C118.037 120.057 117.978 120.014 117.91 119.967L118.069 119.738L118.228 119.509C118.337 119.585 118.428 119.65 118.499 119.7C122.577 115.721 126.164 111.242 129.168 106.365C129.108 106.335 129.039 106.3 128.959 106.261L129.082 106.011L129.206 105.761C129.306 105.81 129.39 105.853 129.46 105.889C132.299 101.195 134.598 96.1384 136.271 90.8047C136.202 90.7788 136.12 90.7477 136.023 90.7119L136.217 90.1885C136.299 90.2192 136.372 90.2469 136.435 90.2705C138.363 83.9425 139.413 77.2315 139.44 70.2793H139.168V69.7217H139.44C139.419 64.1723 138.746 58.7764 137.495 53.6064C137.423 53.6245 137.337 53.6475 137.236 53.6719L137.104 53.1299C137.204 53.1057 137.29 53.0832 137.361 53.0654C135.916 47.297 133.749 41.8144 130.962 36.7197C130.891 36.7561 130.806 36.8014 130.705 36.8516L130.457 36.3516C130.549 36.306 130.627 36.265 130.692 36.2314C127.825 31.0886 124.323 26.3477 120.292 22.1152C120.223 22.1612 120.136 22.2192 120.031 22.2871L119.729 21.8193C119.792 21.7781 119.848 21.74 119.898 21.707C115.775 17.4475 111.111 13.7134 106.018 10.6172C105.957 10.6766 105.881 10.7527 105.786 10.8418L105.595 10.6396L105.403 10.4365C105.447 10.3949 105.487 10.3552 105.523 10.3203C100.671 7.4256 95.4354 5.10563 89.9111 3.45508C89.855 3.53187 89.7802 3.634 89.6846 3.75586L89.2451 3.41211C89.2797 3.36808 89.3098 3.32513 89.3389 3.28711C83.2 1.51068 76.7113 0.557617 70 0.557617Z" fill="#171717"/>
</svg>
